<?xml version="1.0" encoding="UTF-8" standalone="no"?>
<!-- Created with Inkscape (http://www.inkscape.org/) -->

<svg
   width="210mm"
   height="297mm"
   viewBox="0 0 210 297"
   version="1.1"
   id="svg1"
   xml:space="preserve"
   inkscape:version="1.4 (e7c3feb100, 2024-10-09)"
   sodipodi:docname="Done-name.svg"
   xmlns:inkscape="http://www.inkscape.org/namespaces/inkscape"
   xmlns:sodipodi="http://sodipodi.sourceforge.net/DTD/sodipodi-0.dtd"
   xmlns:xlink="http://www.w3.org/1999/xlink"
   xmlns="http://www.w3.org/2000/svg"
   xmlns:svg="http://www.w3.org/2000/svg"><sodipodi:namedview
     id="namedview1"
     pagecolor="#ffffff"
     bordercolor="#999999"
     borderopacity="1"
     inkscape:showpageshadow="2"
     inkscape:pageopacity="0"
     inkscape:pagecheckerboard="0"
     inkscape:deskcolor="#d1d1d1"
     inkscape:document-units="mm"
     inkscape:zoom="0.45855072"
     inkscape:cx="285.68268"
     inkscape:cy="489.58597"
     inkscape:window-width="1920"
     inkscape:window-height="1134"
     inkscape:window-x="0"
     inkscape:window-y="29"
     inkscape:window-maximized="1"
     inkscape:current-layer="svg1"
     showgrid="false" /><defs
     id="defs1"><inkscape:path-effect
       effect="spiro"
       id="path-effect25"
       is_visible="true"
       lpeversion="1" /><inkscape:path-effect
       effect="spiro"
       id="path-effect24"
       is_visible="true"
       lpeversion="1" /><inkscape:path-effect
       effect="spiro"
       id="path-effect23"
       is_visible="true"
       lpeversion="1" /><inkscape:path-effect
       effect="spiro"
       id="path-effect22"
       is_visible="true"
       lpeversion="1" /><inkscape:path-effect
       effect="spiro"
       id="path-effect21"
       is_visible="true"
       lpeversion="1" /><inkscape:path-effect
       effect="spiro"
       id="path-effect20"
       is_visible="true"
       lpeversion="1" /><inkscape:path-effect
       effect="spiro"
       id="path-effect19"
       is_visible="true"
       lpeversion="1" /><inkscape:path-effect
       effect="spiro"
       id="path-effect18"
       is_visible="true"
       lpeversion="1" /><inkscape:path-effect
       effect="spiro"
       id="path-effect17"
       is_visible="true"
       lpeversion="1" /><inkscape:path-effect
       effect="spiro"
       id="path-effect16"
       is_visible="true"
       lpeversion="1" /><inkscape:path-effect
       effect="spiro"
       id="path-effect10"
       is_visible="true"
       lpeversion="1" /><inkscape:path-effect
       effect="spiro"
       id="path-effect8"
       is_visible="true"
       lpeversion="1" /><inkscape:path-effect
       effect="spiro"
       id="path-effect6"
       is_visible="true"
       lpeversion="1" /><inkscape:path-effect
       effect="spiro"
       id="path-effect1"
       is_visible="true"
       lpeversion="1" /><inkscape:path-effect
       effect="fillet_chamfer"
       id="path-effect15"
       is_visible="true"
       lpeversion="1"
       nodesatellites_param="F,0,0,1,0,0,0,1 @ F,0,0,1,0,0,0,1 @ F,0,0,1,0,0,0,1 @ F,0,0,1,0,0.83594521,0,1 @ F,0,0,1,0,0,0,1 @ F,0,0,1,0,0,0,1 @ F,0,0,1,0,0,0,1 @ F,0,0,1,0,0,0,1 @ F,0,0,1,0,0,0,1 @ F,0,0,1,0,0,0,1 @ F,0,0,1,0,0,0,1 @ F,0,0,1,0,0,0,1 @ F,0,0,1,0,0,0,1 @ F,0,0,1,0,0,0,1 @ F,0,0,1,0,0,0,1 @ F,0,0,1,0,0,0,1 @ F,0,0,1,0,0,0,1 @ F,0,0,1,0,0,0,1 @ F,0,0,1,0,0,0,1 @ F,0,0,1,0,0,0,1 @ F,0,0,1,0,0,0,1 @ F,0,0,1,0,0,0,1 @ F,0,0,1,0,0,0,1 @ F,0,0,1,0,0,0,1 @ F,0,0,1,0,0,0,1 @ F,0,0,1,0,0,0,1 @ F,0,0,1,0,0,0,1 @ F,0,0,1,0,0,0,1 @ F,0,0,1,0,0,0,1 @ F,0,0,1,0,0,0,1 @ F,0,0,1,0,0,0,1 @ F,0,0,1,0,0,0,1 @ F,0,0,1,0,0,0,1 @ F,0,0,1,0,0,0,1 @ F,0,0,1,0,0,0,1 @ F,0,0,1,0,0,0,1 @ F,0,0,1,0,0,0,1 @ F,0,0,1,0,0,0,1 @ F,0,0,1,0,0,0,1 @ F,0,0,1,0,0,0,1 @ F,0,0,1,0,0,0,1 @ F,0,0,1,0,0,0,1 @ F,0,0,1,0,0,0,1 @ F,0,0,1,0,0,0,1 @ F,0,0,1,0,0,0,1 @ F,0,0,1,0,0,0,1 @ F,0,0,1,0,0,0,1 @ F,0,0,1,0,0,0,1 @ F,0,0,1,0,0,0,1 @ F,0,0,1,0,0,0,1 @ F,0,0,1,0,0,0,1 @ F,0,0,1,0,0,0,1 @ F,0,0,1,0,0,0,1 @ F,0,0,1,0,0,0,1 @ F,0,0,1,0,0,0,1 @ F,0,0,1,0,0,0,1 @ F,0,0,1,0,0,0,1 @ F,0,0,1,0,0,0,1 @ F,0,0,1,0,0,0,1 @ F,0,0,1,0,0,0,1 @ F,0,0,1,0,0,0,1 @ F,0,0,1,0,0,0,1 @ F,0,0,1,0,0,0,1 @ F,0,0,1,0,0,0,1 @ F,0,0,1,0,0,0,1 @ F,0,0,1,0,0,0,1 @ F,0,0,1,0,0,0,1 @ F,0,0,1,0,0,0,1 @ F,0,0,1,0,0,0,1 @ F,0,0,1,0,0,0,1 @ F,0,0,1,0,0,0,1 @ F,0,0,1,0,0,0,1 @ F,0,0,1,0,0,0,1 @ F,0,0,1,0,0,0,1 @ F,0,0,1,0,0,0,1 @ F,0,0,1,0,0,0,1 @ F,0,0,1,0,0,0,1 @ F,0,0,1,0,0,0,1 @ F,0,0,1,0,0,0,1 @ F,0,0,1,0,0,0,1 @ F,0,0,1,0,0,0,1 @ F,0,0,1,0,0,0,1 @ F,0,0,1,0,0,0,1 @ F,0,0,1,0,0,0,1 @ F,0,0,1,0,0,0,1 @ F,0,0,1,0,0,0,1 @ F,0,0,1,0,0,0,1 @ F,0,0,1,0,0,0,1 @ F,0,0,1,0,0,0,1 @ F,0,0,1,0,0,0,1 @ F,0,0,1,0,0,0,1 @ F,0,0,1,0,0,0,1 @ F,0,0,1,0,0,0,1 @ F,0,0,1,0,0,0,1 @ F,0,0,1,0,0,0,1 @ F,0,0,1,0,0,0,1 @ F,0,0,1,0,0,0,1 @ F,0,0,1,0,0,0,1 @ F,0,0,1,0,0,0,1 @ F,0,0,1,0,0,0,1 @ F,0,0,1,0,0,0,1 @ F,0,0,1,0,0,0,1 @ F,0,0,1,0,0,0,1 @ F,0,0,1,0,0,0,1 @ F,0,0,1,0,0,0,1 @ F,0,0,1,0,0.53720654,0,1 @ F,0,0,1,0,0.67465731,0,1 @ F,0,0,1,0,0.67465731,0,1 @ F,0,0,1,0,0,0,1 @ F,0,0,1,0,0,0,1 @ F,0,0,1,0,0,0,1 @ F,0,0,1,0,0,0,1 @ F,0,1,1,0,1.1627852,0,1 @ F,0,1,1,0,1.1627852,0,1 @ F,0,0,1,0,1.2245558,0,1 @ F,0,0,1,0,0,0,1 @ F,0,0,1,0,0,0,1 @ F,0,0,1,0,0,0,1 @ F,0,0,1,0,0,0,1 @ F,0,0,1,0,0,0,1 @ F,0,0,1,0,0,0,1 @ F,0,0,1,0,0,0,1 @ F,0,0,1,0,0,0,1 @ F,0,0,1,0,0,0,1 @ F,0,0,1,0,0,0,1"
       radius="0"
       unit="px"
       method="auto"
       mode="F"
       chamfer_steps="1"
       flexible="false"
       use_knot_distance="true"
       apply_no_radius="true"
       apply_with_radius="true"
       only_selected="false"
       hide_knots="false" /><inkscape:path-effect
       effect="spiro"
       id="path-effect14"
       is_visible="true"
       lpeversion="1" /><inkscape:path-effect
       effect="spiro"
       id="path-effect13"
       is_visible="true"
       lpeversion="1" /><inkscape:path-effect
       effect="spiro"
       id="path-effect12"
       is_visible="true"
       lpeversion="1" /><linearGradient
       id="swatch12"
       inkscape:swatch="solid"><stop
         style="stop-color:#000000;stop-opacity:1;"
         offset="0"
         id="stop12" /></linearGradient><linearGradient
       id="swatch11"
       inkscape:swatch="solid"><stop
         style="stop-color:#000000;stop-opacity:1;"
         offset="0"
         id="stop11" /></linearGradient><inkscape:path-effect
       effect="fillet_chamfer"
       id="path-effect11"
       is_visible="true"
       lpeversion="1"
       nodesatellites_param="F,0,0,1,0,0,0,1 @ F,0,0,1,0,0,0,1 @ F,0,0,1,0,0,0,1 @ F,0,0,1,0,7.1043325,0,1"
       radius="0"
       unit="px"
       method="auto"
       mode="F"
       chamfer_steps="1"
       flexible="false"
       use_knot_distance="true"
       apply_no_radius="true"
       apply_with_radius="true"
       only_selected="false"
       hide_knots="false" /><inkscape:path-effect
       effect="spiro"
       id="path-effect9"
       is_visible="true"
       lpeversion="1" /><inkscape:path-effect
       effect="spiro"
       id="path-effect5"
       is_visible="true"
       lpeversion="1" /><linearGradient
       id="swatch3"
       inkscape:swatch="solid"><stop
         style="stop-color:#000000;stop-opacity:1;"
         offset="0"
         id="stop3" /></linearGradient><inkscape:path-effect
       effect="fillet_chamfer"
       id="path-effect37"
       is_visible="true"
       lpeversion="1"
       nodesatellites_param="F,0,0,1,0,0,0,1 @ F,0,0,1,0,0,0,1 @ F,0,0,1,0,0,0,1 @ F,0,0,1,0,7.1043325,0,1"
       radius="0"
       unit="px"
       method="auto"
       mode="F"
       chamfer_steps="1"
       flexible="false"
       use_knot_distance="true"
       apply_no_radius="true"
       apply_with_radius="true"
       only_selected="false"
       hide_knots="false" /><linearGradient
       id="linearGradient4"
       inkscape:collect="always"><stop
         style="stop-color:#ffca00;stop-opacity:1;"
         offset="0.64437973"
         id="stop4" /><stop
         style="stop-color:#fbc58f;stop-opacity:0;"
         offset="1"
         id="stop5" /></linearGradient><inkscape:path-effect
       effect="spiro"
       id="path-effect2"
       is_visible="true"
       lpeversion="1" /><radialGradient
       inkscape:collect="always"
       xlink:href="#linearGradient4"
       id="radialGradient5"
       cx="64.15522"
       cy="84.088135"
       fx="64.15522"
       fy="84.088135"
       r="4.5736508"
       gradientTransform="matrix(1.1874325,0,0,1.181778,-11.244291,-16.005608)"
       gradientUnits="userSpaceOnUse" /><radialGradient
       inkscape:collect="always"
       xlink:href="#linearGradient4"
       id="radialGradient5-2"
       cx="64.15522"
       cy="84.088135"
       fx="64.15522"
       fy="84.088135"
       r="4.5736508"
       gradientTransform="matrix(1.1874325,0,0,1.181778,-11.244291,-16.005608)"
       gradientUnits="userSpaceOnUse" /><radialGradient
       inkscape:collect="always"
       xlink:href="#linearGradient4"
       id="radialGradient1"
       cx="64.15522"
       cy="84.088135"
       fx="64.15522"
       fy="84.088135"
       r="4.5736508"
       gradientTransform="matrix(1.1874325,0,0,1.181778,-11.244291,-16.005608)"
       gradientUnits="userSpaceOnUse" /><linearGradient
       id="linearGradient3"
       inkscape:collect="always"><stop
         style="stop-color:#ffdeb0;stop-opacity:1;"
         offset="0.92014974"
         id="stop3-1" /><stop
         style="stop-color:#ffdeb0;stop-opacity:0;"
         offset="1"
         id="stop4-9" /></linearGradient><inkscape:path-effect
       effect="spiro"
       id="path-effect2-4"
       is_visible="true"
       lpeversion="1" /><inkscape:path-effect
       effect="spiro"
       id="path-effect1-7"
       is_visible="true"
       lpeversion="1" /><radialGradient
       inkscape:collect="always"
       xlink:href="#linearGradient3"
       id="radialGradient4"
       cx="21.289726"
       cy="114.82715"
       fx="21.289726"
       fy="114.82715"
       r="12.314141"
       gradientTransform="matrix(1,0,0,0.55908161,0,50.629402)"
       gradientUnits="userSpaceOnUse" /><linearGradient
       id="linearGradient20"
       inkscape:collect="always"><stop
         style="stop-color:#f7c6d0;stop-opacity:1;"
         offset="0.39836743"
         id="stop20" /><stop
         style="stop-color:#f1d5dc;stop-opacity:1;"
         offset="1"
         id="stop21" /></linearGradient><inkscape:path-effect
       effect="spiro"
       id="path-effect19-1"
       is_visible="true"
       lpeversion="1" /><linearGradient
       inkscape:collect="always"
       xlink:href="#linearGradient20"
       id="linearGradient21"
       x1="73.642433"
       y1="148.75119"
       x2="73.642433"
       y2="159.3548"
       gradientUnits="userSpaceOnUse"
       gradientTransform="translate(-227.60242,-47.302948)" /></defs><g
     id="g6"
     transform="rotate(17.898796,154.06736,215.89706)"><path
       style="opacity:1;fill:#7f955c;fill-opacity:1;stroke:#000000;stroke-width:0.079375;stroke-opacity:1"
       d="m 79.029842,100.46953 c 1.664721,4.81545 3.151078,9.69256 4.455001,14.61797 1.107173,4.18221 2.082602,8.3982 3.016406,12.6225 1.32997,6.01646 2.575895,12.05136 3.758907,18.09844 2.030001,10.37654 3.875469,20.7935 5.243906,31.27781 0.903725,6.92391 1.598998,13.87435 2.134688,20.83641 0.541476,7.03726 0.920574,14.0928 1.833046,21.09163 1.292684,9.91513 3.658904,19.80293 3.039684,29.78278 -0.12628,2.03521 -0.37683,4.06437 -0.39377,6.10343 -0.003,0.39376 0,0.78754 0,1.18131 v 2.36262 c 0,0.24597 0.003,0.49319 0.0444,0.73558 0.0418,0.24239 0.12285,0.47898 0.24895,0.69017 0.25219,0.42237 0.68215,0.72065 1.15047,0.87124 0.40488,0.13019 0.84304,0.16298 1.25947,0.0766 0.41644,-0.0864 0.80961,-0.29389 1.10315,-0.60164 0.3147,-0.32993 0.50613,-0.76163 0.615,-1.20439 0.10886,-0.44276 0.14038,-0.90031 0.17254,-1.35512 0.1762,-2.49163 0.38397,-4.9838 0.39377,-7.48163 0.007,-1.83905 -0.0929,-3.67666 -0.19688,-5.51278 -0.18951,-3.34747 -0.39177,-6.69421 -0.59066,-10.04114 -0.1563,-2.6302 -0.31079,-5.26331 -0.65628,-7.8754 -0.33882,-2.56168 -0.86111,-5.10145 -1.05005,-7.67852 -0.15045,-2.05205 -0.0884,-4.1134 0,-6.16906 0.44688,-10.39281 1.56673,-20.7638 3.54393,-30.97658 1.84576,-9.53387 4.4347,-18.91262 7.416,-28.15456 2.78311,-8.62755 5.92178,-17.18997 7.48163,-26.12009 0.86749,-4.96637 1.24334,-10.0309 2.55951,-14.89763 0.91527,-3.38435 2.27438,-6.63033 3.67519,-9.84425 1.80057,-4.131105 3.68919,-8.26555 4.65961,-12.666272 0.14759,-0.669318 0.27409,-1.349179 0.26251,-2.034479 -0.009,-0.525771 -0.0991,-1.050299 -0.0656,-1.57508 0.0111,-0.17417 0.0358,-0.348796 0.0191,-0.522524 -0.008,-0.08686 -0.0272,-0.17322 -0.0621,-0.253189 -0.0349,-0.07997 -0.0864,-0.153491 -0.15394,-0.208712 -0.0623,-0.05092 -0.13748,-0.08548 -0.21619,-0.102248 -0.0787,-0.01677 -0.16083,-0.01593 -0.23975,-2.18e-4 -0.15785,0.03143 -0.30013,0.121631 -0.41191,0.237422 -0.22357,0.231582 -0.32508,0.550642 -0.44472,0.849469 -0.45005,1.124146 -1.23059,2.077646 -1.90322,3.084531 -1.18162,1.768809 -2.04417,3.7298 -2.82202,5.709668 -0.75183,1.913647 -1.43029,3.855291 -2.16574,5.775292 -0.92147,2.40564 -1.93276,4.77825 -2.75639,7.21912 -0.72331,2.14358 -1.3006,4.33718 -1.70633,6.56283 -0.41228,2.26159 -0.64686,4.55141 -0.98443,6.82535 -0.66537,4.48209 -1.74164,8.93176 -3.60956,13.06004 -1.07384,2.37328 -2.406,4.63446 -3.28142,7.08787 -0.67471,1.89091 -1.06808,3.86872 -1.44382,5.84092 -0.70765,3.71432 -1.3623,7.44478 -2.36262,11.09119 -1.18334,4.31357 -2.84642,8.49445 -3.80644,12.86315 -0.91132,4.14706 -1.17658,8.40641 -1.8376,12.60065 -0.34575,2.19383 -0.79976,4.36947 -1.14849,6.56283 -0.0797,0.50123 -0.15393,1.00374 -0.19689,1.50945 -0.0112,0.13159 -0.0204,0.26442 -0.0564,0.39148 -0.036,0.12707 -0.10149,0.24984 -0.2061,0.33044 -0.0924,0.0712 -0.21168,0.10517 -0.32814,0.0984 -0.11434,-0.007 -0.22462,-0.0512 -0.3186,-0.11664 -0.094,-0.0655 -0.17244,-0.15128 -0.23924,-0.24432 -0.28217,-0.39304 -0.3524,-0.89612 -0.39378,-1.37819 -0.10203,-1.18864 -0.0803,-2.38388 -0.0984,-3.57675 -0.0622,-4.10827 -0.5965,-8.19264 -1.082865,-12.2725 -0.191034,-1.60248 -0.375114,-3.20788 -0.689096,-4.79087 -0.449621,-2.26683 -1.162676,-4.47308 -1.673524,-6.7269 -0.876861,-3.86865 -1.151269,-7.84383 -1.640708,-11.78029 -0.386453,-3.10817 -0.908478,-6.20059 -1.607897,-9.2536 -0.621552,-2.71311 -1.382381,-5.39199 -2.13292,-8.07229 -0.945831,-3.37772 -1.876087,-6.76067 -2.690762,-10.17239 -0.791947,-3.31654 -1.474242,-6.65849 -2.264177,-9.97551 -0.798336,-3.3523 -1.708292,-6.68406 -2.920463,-9.90988 -0.538426,-1.43286 -1.13932,-2.85479 -1.424601,-4.35865 -0.113024,-0.5958 -0.177716,-1.208371 -0.41064,-1.768285 -0.116462,-0.279957 -0.275566,-0.544854 -0.488679,-0.760544 -0.213113,-0.21569 -0.482335,-0.380619 -0.778348,-0.446311 -0.295453,-0.06557 -0.6095,-0.03002 -0.890788,0.08164 -0.281289,0.111663 -0.530381,0.297225 -0.733431,0.521641 -0.26697,0.295061 -0.456784,0.659334 -0.545668,1.047192 -0.08888,0.387857 -0.07664,0.798437 0.0352,1.180307 z"
       id="path1-8"
       inkscape:original-d="m 79.029842,100.46953 c -0.170156,0.7425 2.939063,9.74531 4.455001,14.61797 1.515938,4.87266 2.026407,8.415 3.016406,12.6225 0.99,4.2075 2.490468,12.08109 3.758907,18.09844 1.268436,6.01734 3.495937,20.8364 5.243906,31.27781 1.747967,10.44141 1.454063,13.87547 2.134688,20.83641 0.680624,6.96093 1.183359,14.08429 1.833046,21.09163 0.649684,7.00735 2.070204,19.89894 3.039684,29.78278 0.96947,9.88383 -0.30627,4.06895 -0.39377,6.10343 -0.0875,2.03448 0,0.78754 0,1.18131 0,0.39377 0,1.55321 0,2.36262 0,0.80942 1.02818,1.55321 1.44382,2.29699 0.41565,0.74379 1.57508,-0.35001 2.36262,-0.52502 0.78754,-0.17501 0.52503,-1.70634 0.78754,-2.55951 0.26252,-0.85317 0.26252,-4.98775 0.39377,-7.48163 0.13126,-2.49388 -0.13125,-3.63143 -0.19688,-5.51278 -0.0656,-1.88135 -0.39377,-6.73784 -0.59066,-10.04114 -0.19688,-3.30329 -0.43752,-5.25027 -0.65628,-7.8754 -0.21876,-2.62513 -0.70004,-5.16276 -1.05005,-7.67852 -0.35002,-2.51575 0,-4.06895 0,-6.16906 0,-2.10011 2.36262,-20.62918 3.54393,-30.97658 1.18131,-10.3474 4.96588,-18.79158 7.416,-28.15456 2.45013,-9.36298 4.96588,-17.41339 7.48163,-26.12009 2.51575,-8.70669 1.70634,-9.93175 2.55951,-14.89763 0.85317,-4.96588 2.45012,-6.56283 3.67519,-9.84425 1.22506,-3.281419 3.12828,-8.422305 4.65961,-12.666272 1.53133,-4.243967 0.17501,-1.400071 0.26251,-2.034479 0.0875,-0.634407 -0.0875,-1.07193 -0.0656,-1.57508 0.0219,-0.50315 -0.10938,-0.612532 -0.19688,-0.984425 -0.0875,-0.371895 -0.87505,0.656283 -1.31257,0.984425 -0.43752,0.328141 -1.29069,2.07823 -1.90322,3.084531 -0.61253,1.006303 -1.85947,3.806446 -2.82202,5.709668 -0.96255,1.903222 -1.44382,3.82832 -2.16574,5.775292 -0.72191,1.94698 -1.83759,4.81275 -2.75639,7.21912 -0.91879,2.40637 -1.13755,4.3971 -1.70633,6.56283 -0.56878,2.16574 -0.65629,4.57211 -0.98443,6.82535 -0.32814,2.25324 -2.45013,8.66294 -3.60956,13.06004 -1.15943,4.3971 -2.14386,4.72525 -3.28142,7.08787 -1.13755,2.36262 -0.96255,3.89395 -1.44382,5.84092 -0.48127,1.94697 -1.57508,7.416 -2.36262,11.09119 -0.78754,3.67519 -2.55951,8.53168 -3.80644,12.86315 -1.24694,4.33148 -1.20319,8.42231 -1.8376,12.60065 -0.6344,4.17834 -0.76566,4.37522 -1.14849,6.56283 -0.38284,2.18762 -0.13126,1.01724 -0.19689,1.50945 -0.0656,0.49222 -0.19688,0.47034 -0.26251,0.72192 -0.0656,0.25157 -0.19689,0.0656 -0.32814,0.0984 -0.13126,0.0328 -0.3719,-0.26251 -0.55784,-0.36096 -0.18595,-0.0984 -0.26252,-0.91879 -0.39378,-1.37819 -0.13125,-0.4594 -0.0656,-2.36262 -0.0984,-3.57675 -0.0328,-1.21412 -0.72191,-8.18166 -1.082865,-12.2725 -0.360955,-4.09083 -0.459398,-3.20485 -0.689096,-4.79087 -0.229701,-1.58601 -1.115685,-4.47366 -1.673524,-6.7269 -0.557842,-2.25324 -1.071931,-7.87541 -1.640708,-11.78029 -0.56878,-3.90489 -1.093806,-6.14719 -1.607897,-9.2536 -0.514088,-3.10641 -1.421947,-5.38152 -2.13292,-8.07229 -0.710975,-2.69076 -1.79384,-6.78159 -2.690762,-10.17239 -0.896921,-3.3908 -1.520391,-6.6394 -2.264177,-9.97551 -0.743789,-3.3361 -1.936038,-6.6394 -2.920463,-9.90988 -0.984424,-3.27048 -0.965202,-2.91483 -1.424601,-4.35865 -0.459399,-1.443827 -1.118444,-1.921554 -1.677667,-2.97514 -0.559221,-1.05359 -1.067343,0.37125 -1.624219,0.603281 -0.556874,0.232029 -0.340313,1.484998 -0.510469,2.227499 z"
       inkscape:path-effect="#path-effect1-7" /><g
       id="g3"
       transform="translate(-0.06562835)"><path
         id="path2-4"
         style="opacity:1;fill:#f3a6bc;fill-opacity:1;stroke:#000000;stroke-width:0.079375"
         d="m 80.947514,80.266935 c -1.311357,0.01997 -2.74273,0.262513 -4.211629,0.713652 -0.788612,0.210773 -1.559098,0.491231 -2.300118,0.833541 -0.44035,0.203416 -0.866983,0.433494 -1.28726,0.674894 -0.24189,0.122438 -0.481973,0.249632 -0.719853,0.381372 -3.876323,2.241895 -6.762253,5.481932 -7.53029,8.454264 -0.483481,0.548979 -1.025746,1.046827 -1.537374,1.571481 -0.637949,0.654192 -1.236774,1.37733 -1.547709,2.236555 -0.281199,0.777057 -0.31196,1.624107 -0.557072,2.41329 -0.25454,0.819542 -0.732364,1.552354 -1.02371,2.359546 -0.145673,0.4036 -0.24466,0.8293 -0.237711,1.25832 0.0069,0.42903 0.125102,0.8629 0.379821,1.2082 0.328571,0.4454 0.851573,0.70666 1.378211,0.87694 0.526637,0.17029 1.076501,0.26678 1.591634,0.46923 0.653308,0.25674 1.227781,0.67457 1.809709,1.06712 0.612997,0.41349 1.245764,0.80463 1.927531,1.09088 0.681766,0.28626 1.417462,-1.04399 2.156457,-1.06916 0.890688,-0.0303 1.750769,1.15346 2.522327,0.70743 0.771557,-0.44603 1.466269,-1.01071 2.164725,-1.56425 0.92605,-0.7339 1.878456,-1.45993 2.967778,-1.91771 1.239584,-0.52093 2.598371,-0.67103 3.900537,-1.00614 1.053401,-0.27109 2.07175,-0.66433 3.062345,-1.113626 0.923743,-0.418972 1.82459,-0.887103 2.726966,-1.350305 1.130589,-0.580346 2.265129,-1.153941 3.36827,-1.784904 1.705878,-0.97571 1.664736,-2.122438 2.802431,-3.724837 1.209363,-1.70334 3.447957,-3.911415 2.982745,-5.947957 -0.403212,-1.765127 -1.513446,-3.310721 -2.877344,-4.501534 -0.875184,-0.76412 -1.874181,-1.406848 -2.98328,-1.752865 -1.109098,-0.346017 -2.336065,-0.380019 -3.42098,0.03566 -0.137257,0.05259 -0.273015,0.112762 -0.417545,0.139526 -0.167886,0.03109 -0.340599,0.01625 -0.510564,0 -0.361102,-0.03452 -0.722138,-0.07883 -1.083138,-0.121439 -0.962672,-0.438327 -2.152001,-0.655097 -3.49591,-0.637171 z"
         sodipodi:nodetypes="ccscccsssssssssssssssssssssssssccc" /><ellipse
         style="opacity:1;fill:url(#radialGradient4);fill-opacity:1;stroke:none;stroke-width:0.079375"
         id="path3-5"
         transform="rotate(-30)"
         inkscape:label="path3"
         ry="6.8449221"
         rx="12.274453"
         cy="114.82715"
         cx="21.289726" /></g><use
       x="0"
       y="0"
       xlink:href="#g3"
       id="use4"
       transform="matrix(-0.96592582,0.25881904,0.25881904,0.96592582,185.25819,-28.99227)" /></g><g
     id="g5"
     transform="matrix(0.75283952,-0.22332969,0.22332969,0.75283952,-28.245141,54.712971)"><path
       style="display:inline;opacity:1;fill:#577f6d;stroke:#000000;stroke-width:0.132292"
       d="m 138.66187,90.863437 c -0.61738,3.357513 -1.23018,6.715868 -1.83839,10.075053 -0.87756,4.84681 -1.74676,9.70419 -2.15254,14.61307 -0.3286,3.97517 -0.35662,8.00429 -1.29938,11.88 -0.87431,3.59434 -2.51211,6.95427 -4.26937,10.20938 -1.33016,2.46397 -2.74481,4.90733 -3.61425,7.56901 -0.91347,2.79649 -1.20095,5.76283 -2.04731,8.58036 -0.92166,3.06819 -2.48545,5.89653 -3.99094,8.72438 -1.99834,3.7536 -3.92945,7.59513 -4.92822,11.72857 -0.59667,2.46935 -0.85213,5.01109 -1.44383,7.48164 -0.886,3.69935 -2.50798,7.17234 -3.9377,10.69741 -0.98358,2.42508 -1.87944,4.88474 -2.75639,7.35038 -0.85567,2.40579 -1.69433,4.82033 -2.36262,7.28475 -0.22924,0.84536 -0.43847,1.69693 -0.59065,2.5595 -0.63323,3.58922 -0.26601,7.27138 0.13125,10.89431 0.3984,3.63337 0.82538,7.26354 1.24694,10.8943 0.47506,4.09157 0.94326,8.18397 1.44382,12.2725 0.66476,5.42975 1.38783,10.87118 1.3782,16.34146 -6.9e-4,0.39377 -0.005,0.78757 0,1.18131 0.009,0.67847 0.0466,1.35622 0.0656,2.03448 0.0251,0.89665 0.0176,1.79393 0,2.69076 -0.0197,1.0072 -0.0519,2.01838 0.0656,3.0189 0.0607,0.51703 0.16128,1.02961 0.19628,1.54902 0.035,0.5194 0.001,1.05397 -0.19628,1.53552 -0.13292,0.32366 -0.34058,0.61901 -0.61349,0.83796 -0.27292,0.21895 -0.61213,0.35896 -0.96159,0.37616 -0.2957,0.0146 -0.59149,-0.0579 -0.86141,-0.17948 -0.26991,-0.12163 -0.5157,-0.29135 -0.74649,-0.47679 -0.57805,-0.46446 -1.07907,-1.0471 -1.34538,-1.73916 -0.21404,-0.55623 -0.26929,-1.16148 -0.26603,-1.75746 0.003,-0.59599 0.0628,-1.19052 0.0692,-1.78648 0.0226,-2.12253 -0.62869,-4.21082 -0.59066,-6.33313 0.0102,-0.56806 0.0698,-1.13523 0.0552,-1.70319 -0.0147,-0.56797 -0.10828,-1.1467 -0.38331,-1.64385 -0.23476,-0.42436 -0.58872,-0.76777 -0.92972,-1.11261 -0.34099,-0.34484 -0.68058,-0.70731 -0.87506,-1.15157 -0.26717,-0.61032 -0.23209,-1.3061 -0.16407,-1.96885 0.12939,-1.26069 0.36019,-2.51021 0.4594,-3.77363 0.25419,-3.23708 -0.35919,-6.47203 -0.55784,-9.71299 -0.07233,-1.17996 -0.08964,-2.3625 -0.131261,-3.54394 -0.07041,-1.99843 -0.210757,-3.99736 -0.525026,-5.97218 -0.122089,-0.76719 -0.270307,-1.53002 -0.393771,-2.29699 -0.523558,-3.25239 -0.599055,-6.55743 -0.820354,-9.84425 -0.319726,-4.7487 -0.949487,-9.4937 -2.231364,-14.07728 -0.311266,-1.11299 -0.660537,-2.21496 -1.017238,-3.31423 -0.901052,-2.77683 -1.849944,-5.53785 -2.789206,-8.30199 -0.266028,-0.78289 -0.531427,-1.56649 -0.754726,-2.36262 -1.453567,-5.18242 -1.080186,-10.7087 -2.165736,-15.9805 -0.63487,-3.08314 -1.763321,-6.0506 -2.349239,-9.14342 -0.510191,-2.69309 -0.602483,-5.44592 -0.928123,-8.1675 -0.282825,-2.36374 -0.741529,-4.70243 -1.113751,-7.05375 -0.177014,-1.1182 -0.334876,-2.24141 -0.603281,-3.34125 -0.508613,-2.08415 -1.40929,-4.06445 -1.809846,-6.17203 -0.218241,-1.14831 -0.284913,-2.31917 -0.417655,-3.48047 -0.427876,-3.74329 -1.539191,-7.36902 -2.366719,-11.04469 -0.410548,-1.82355 -0.751887,-3.66288 -1.206561,-5.47593 -0.838465,-3.34345 -2.058551,-6.58258 -2.877188,-9.93094 -0.508092,-2.07818 -0.860079,-4.19268 -1.392187,-6.26484 -0.975011,-3.79693 -2.543425,-7.410808 -3.828518,-11.114304 -0.103504,-0.298288 -0.205347,-0.597761 -0.278437,-0.90492 -0.06519,-0.273944 -0.107324,-0.553854 -0.116014,-0.835313 -0.0019,-0.06018 -0.0022,-0.12073 0.007,-0.180235 0.0092,-0.0595 0.02832,-0.118287 0.06257,-0.167811 0.03812,-0.05512 0.09397,-0.09688 0.155785,-0.122757 0.06182,-0.02587 0.129432,-0.03635 0.196445,-0.03573 0.134026,0.0012 0.263438,0.04554 0.39027,0.08888 0.254592,0.08699 0.509835,0.17207 0.765702,0.255233 0.104789,0.128167 0.205407,0.259744 0.30164,0.394454 0.344964,0.482889 0.632378,1.004242 0.904923,1.531406 0.381398,0.737712 0.735358,1.489477 1.067345,2.250705 1.325757,3.039886 2.297098,6.220235 3.248435,9.397265 1.83568,6.13033 3.609222,12.28305 5.058283,18.51609 1.307861,5.62568 2.350895,11.31458 3.85172,16.89188 0.737225,2.73964 1.584474,5.45063 2.227497,8.2139 1.123141,4.82649 1.61597,9.78066 2.691564,14.61797 0.841424,3.78416 2.035658,7.47984 3.016406,11.23031 0.855431,3.27125 1.548639,6.58586 2.041875,9.93094 0.274899,1.86433 0.487644,3.73765 0.649687,5.61516 0.145286,1.68335 0.253915,3.39126 0.788249,4.99415 0.07111,0.21331 0.149617,0.42424 0.213291,0.63988 0.04622,0.15654 0.08457,0.31541 0.114851,0.4758 0.03005,0.16903 0.07971,0.33456 0.147663,0.49222 0.05433,0.12604 0.12033,0.24704 0.196885,0.36095 l 0.360955,0.0164 c 0.160702,-0.0206 0.313698,-0.0971 0.426585,-0.21329 0.09572,-0.0985 0.161716,-0.22298 0.206275,-0.35292 0.04456,-0.12995 0.06864,-0.26595 0.08905,-0.4018 0.118279,-0.78712 0.118279,-1.59191 0,-2.37903 v -2.18214 c 0,-0.58429 0.01958,-1.16847 0.0164,-1.75275 -0.0112,-2.05893 -0.466041,-4.09134 -0.564745,-6.14794 -0.08389,-1.748 0.09007,-3.49651 0.185626,-5.24391 0.294029,-5.37667 -0.154199,-10.7754 0.185624,-16.14937 0.110596,-1.74897 0.304548,-3.49272 0.37125,-5.24391 0.192728,-5.0599 -0.678396,-10.11405 -0.510468,-15.17484 0.03082,-0.92879 0.09662,-1.85605 0.139218,-2.78438 0.112771,-2.45732 0.06292,-4.91886 0.09281,-7.37859 0.05866,-4.82749 0.424512,-9.65474 0.232032,-14.47875 -0.190554,-4.77572 -0.927316,-9.51725 -1.11375,-14.29313 -0.156332,-4.004753 0.075,-8.012939 0.185623,-12.019215 0.09991,-3.618044 0.0982,-7.271343 -0.649687,-10.812656 -0.391773,-1.855088 -0.984555,-3.660506 -1.531405,-5.475938 -0.150165,-0.498518 -0.297439,-1.000344 -0.368704,-1.516088 -0.07126,-0.515743 -0.06422,-1.049531 0.09027,-1.546726 0.03053,-0.09826 0.06696,-0.195306 0.118927,-0.284109 0.05197,-0.0888 0.120191,-0.169455 0.205915,-0.22636 0.112526,-0.0747 0.249538,-0.104929 0.384442,-0.111469 0.134904,-0.0065 0.269744,0.0091 0.404466,0.01866 0.54645,0.03882 1.115902,-0.01865 1.624219,0.185623 0.490271,0.197024 0.862692,0.620313 1.102208,1.091287 0.239515,0.470974 0.361039,0.991655 0.475599,1.507464 0.51657,2.325772 0.93532,4.677992 1.11375,7.053749 0.21787,2.900958 0.0762,5.815296 0.0928,8.724376 0.0135,2.369723 0.13216,4.738241 0.32485,7.100155 0.29786,3.65094 0.77279,7.290428 0.88171,10.951878 0.0856,2.87678 -0.0552,5.75473 -0.13921,8.63156 -0.0984,3.37108 -0.11892,6.74414 -0.0928,10.11656 0.0387,4.99657 0.17971,9.99266 0.13921,14.98922 -0.0384,4.73418 -0.2396,9.47205 0,14.20031 0.23763,4.68931 0.90857,9.37292 0.64969,14.0611 -0.0625,1.13136 -0.179,2.25893 -0.27844,3.38765 -0.19854,2.25355 -0.32906,4.51343 -0.37125,6.77532 -0.0423,2.26683 0.004,4.53531 0.13922,6.79851 -0.32088,1.81204 -0.38358,3.66959 -0.18562,5.49914 0.0994,0.91878 0.26435,1.84266 0.16242,2.76117 -0.025,0.22505 -0.0659,0.44807 -0.0928,0.6729 -0.0479,0.4 -0.0514,0.80468 -0.0232,1.20656 0.033,0.47005 0.10919,0.93728 0.23203,1.39219 0.0129,0.0478 0.0264,0.0957 0.0478,0.14031 0.0214,0.0446 0.0511,0.0862 0.0914,0.11492 0.0409,0.0291 0.0912,0.0437 0.14135,0.0446 0.0502,8.4e-4 0.10007,-0.0117 0.14549,-0.033 0.0908,-0.0426 0.16192,-0.11807 0.22363,-0.19717 0.2993,-0.38359 0.42093,-0.8725 0.53367,-1.34579 0.21779,-0.91427 0.43039,-1.82995 0.67289,-2.73797 0.47161,-1.7659 1.05536,-3.49946 1.60102,-5.2439 0.31475,-1.00623 0.61696,-2.01652 0.95133,-3.01641 1.21467,-3.63229 2.85317,-7.1261 3.80531,-10.83586 0.77534,-3.02091 1.09517,-6.1811 2.32031,-9.04922 0.74302,-1.73944 1.7997,-3.32309 2.73797,-4.96547 1.81218,-3.17211 3.18968,-6.58008 4.26937,-10.07015 0.59733,-1.93085 1.10516,-3.88985 1.76344,-5.80078 1.42276,-4.13017 3.53191,-7.99022 5.10469,-12.06563 1.29277,-3.34985 2.21987,-6.84193 2.73797,-10.395 1.01772,-6.97942 0.48606,-14.28144 2.97,-20.88281 0.76412,-2.030732 1.80064,-3.951045 2.55234,-5.986407 0.32269,-0.873752 0.59391,-1.770969 1.02094,-2.598748 0.20954,-0.40619 0.45895,-0.797479 0.78891,-1.11375 0.395,-0.378619 0.90115,-0.639858 1.43859,-0.7425 z"
       id="path2-6"
       inkscape:original-d="m 138.66187,90.863437 c 0.47953,-0.247501 -0.9412,5.06318 -1.83839,10.075053 -0.89719,5.01188 -1.71942,11.39557 -2.15254,14.61307 -0.43313,3.2175 -0.89719,7.95094 -1.29938,11.88 -0.40219,3.92906 -2.81531,6.74438 -4.26937,10.20938 -1.45407,3.465 -2.46956,4.97026 -3.61425,7.56901 -1.14468,2.59875 -1.42675,5.78212 -2.04731,8.58036 -0.62057,2.79825 -2.59876,5.75438 -3.99094,8.72438 -1.39219,2.97 -3.28548,7.8628 -4.92822,11.72857 -1.64274,3.86578 -0.96255,4.944 -1.44383,7.48164 -0.48127,2.53762 -2.66888,7.17536 -3.9377,10.69741 -1.26881,3.52206 -1.79384,4.90025 -2.75639,7.35038 -0.96255,2.45012 -1.57508,4.81275 -2.36262,7.28475 -0.78754,2.472 -0.41565,1.66258 -0.59065,2.5595 -0.17501,0.89692 0.0875,7.28475 0.13125,10.89431 0.0437,3.60956 0.87505,7.24099 1.24694,10.8943 0.37189,3.65332 0.96255,8.18167 1.44382,12.2725 0.48128,4.09084 0.9188,10.91619 1.3782,16.34146 0.4594,5.42528 0,0.76567 0,1.18131 0,0.41565 0.0438,1.40007 0.0656,2.03448 0.0219,0.63441 0,1.75009 0,2.69076 0,0.94068 0.0438,2.03449 0.0656,3.0189 0.0219,0.98443 0,2.05637 0,3.08454 0,1.02817 -1.06099,0.79848 -1.57508,1.21412 -0.51409,0.41566 -1.061,-0.43752 -1.6079,-0.65627 -0.5469,-0.21876 -0.89692,-1.14851 -1.34538,-1.73916 -0.44846,-0.59066 -0.13126,-2.38451 -0.19688,-3.54394 -0.0656,-1.15943 -0.39378,-4.20021 -0.59066,-6.33313 -0.19688,-2.13292 -0.2297,-2.25323 -0.32814,-3.34704 -0.0984,-1.09381 -1.18131,-1.48758 -1.80478,-2.26418 -0.623469,-0.7766 -0.10938,-1.3235 -0.16407,-1.96885 -0.0547,-0.64534 0.30626,-2.51575 0.4594,-3.77363 0.15313,-1.25788 -0.3719,-6.49721 -0.55784,-9.71299 -0.18595,-3.2158 -0.109385,-2.31887 -0.131261,-3.54394 -0.02188,-1.22506 -0.328142,-4.0252 -0.525026,-5.97218 -0.196884,-1.94697 -0.262514,-1.50945 -0.393771,-2.29699 -0.131257,-0.78754 -0.546902,-6.56283 -0.820354,-9.84425 -0.273452,-3.28142 -1.487575,-9.39579 -2.231364,-14.07728 -0.743788,-4.68149 -0.678159,-2.19855 -1.017238,-3.31423 -0.339082,-1.11568 -1.85947,-5.53466 -2.789206,-8.30199 -0.929735,-2.76733 -0.50315,-1.57508 -0.754726,-2.36262 -0.251574,-0.78754 -1.443824,-10.65367 -2.165736,-15.9805 -0.721911,-5.32684 -1.566159,-6.09561 -2.349239,-9.14342 -0.783079,-3.04781 -0.618749,-5.46047 -0.928123,-8.1675 -0.309378,-2.70703 -0.742501,-4.71797 -1.113751,-7.05375 -0.37125,-2.33578 -0.402188,-2.19656 -0.603281,-3.34125 -0.201094,-1.14469 -1.206564,-4.11469 -1.809846,-6.17203 -0.603279,-2.05734 -0.278437,-2.32031 -0.417655,-3.48047 -0.139219,-1.16016 -1.577814,-7.36313 -2.366719,-11.04469 -0.788906,-3.68156 -0.804376,-3.65062 -1.206561,-5.47593 -0.402188,-1.82532 -1.918126,-6.65157 -2.877188,-9.93094 -0.959064,-3.27938 -0.912656,-4.17657 -1.392187,-6.26484 -0.479533,-2.08829 -2.560079,-7.370865 -3.828518,-11.114304 -1.268436,-3.743436 -0.193357,-0.626483 -0.278437,-0.90492 -0.08508,-0.278437 -0.06961,-0.54914 -0.116014,-0.835313 -0.04641,-0.286171 0.03867,-0.224298 0.06961,-0.348046 0.03094,-0.123751 0.495001,-0.04641 0.7425,-0.06961 0.247499,-0.0232 1.020937,0.332579 0.765702,0.255233 0.255235,0.05414 0.201093,0.255236 0.30164,0.394454 0.100547,0.139219 0.603282,1.020938 0.904923,1.531406 0.301641,0.510469 0.719296,1.508204 1.067345,2.250705 0.348046,0.7425 2.19656,6.264845 3.248435,9.397265 1.051878,3.13242 3.356721,12.34406 5.058283,18.51609 1.701562,6.17203 2.567813,11.24578 3.85172,16.89188 1.283903,5.64609 1.484997,5.47593 2.227497,8.2139 0.742501,2.73797 1.763438,9.76078 2.691564,14.61797 0.928124,4.85719 2.026407,7.44047 3.016406,11.23031 0.99,3.78985 1.376717,6.65157 2.041875,9.93094 0.665157,3.27938 0.448593,3.77438 0.649687,5.61516 0.201094,1.84078 0.525499,3.32943 0.788249,4.99415 0.26275,1.66472 0.142195,0.42658 0.213291,0.63988 0.0711,0.21329 0.147664,0.62894 0.114851,0.4758 0.0164,0.13673 0.09297,0.32268 0.147663,0.49222 0.05469,0.16953 0.257046,0.48127 0.196885,0.36095 0.04375,0.12032 0.481274,0.0273 0.360955,0.0164 0.103912,0.0273 0.278921,-0.13672 0.426585,-0.21329 0.147664,-0.0766 0.196884,-0.50315 0.295328,-0.75472 0.09844,-0.25158 0,-3.16657 0,-2.37903 v -2.18214 c 0,-0.73285 0.01093,-1.18397 0.0164,-1.75275 0.0055,-0.56877 -0.345559,-4.1141 -0.564745,-6.14794 -0.219186,-2.03385 0.09281,-3.49594 0.185626,-5.24391 0.09281,-1.74797 0.123749,-10.78172 0.185624,-16.14937 0.06188,-5.36766 0.247499,-3.48047 0.37125,-5.24391 0.123751,-1.76344 -0.340312,-10.11656 -0.510468,-15.17484 -0.170157,-5.05828 0.09281,-1.84078 0.139218,-2.78438 0.04641,-0.94359 0.06188,-4.93453 0.09281,-7.37859 0.03094,-2.44406 0.154686,-9.66797 0.232032,-14.47875 0.07734,-4.81078 -0.727033,-9.54422 -1.11375,-14.29313 -0.386721,-4.748905 0.10828,-7.981872 0.185623,-12.019215 0.07735,-4.037344 -0.433123,-7.223906 -0.649687,-10.812656 -0.216561,-3.58875 -1.020937,-3.681563 -1.531405,-5.475938 -0.510469,-1.794375 -0.170157,-2.041874 -0.278437,-3.062814 -0.108281,-1.020937 0.232031,-0.309375 0.324842,-0.510469 0.09281,-0.201094 0.510468,-0.0464 0.788908,-0.09281 0.278437,-0.04641 1.067342,0.10828 1.624219,0.185623 0.556874,0.07734 1.051875,1.7325 1.577807,2.598751 0.52594,0.866249 0.7425,4.702501 1.11375,7.053749 0.37125,2.351252 0.0928,5.847189 0.0928,8.724376 0,2.877188 0.18563,4.702501 0.32485,7.100155 0.13921,2.397657 0.57234,7.270318 0.88171,10.951878 0.30938,3.68156 -0.10828,5.81625 -0.13921,8.63156 -0.0309,2.81531 -0.0309,6.6825 -0.0928,10.11656 -0.0619,3.43407 0.0928,10.02375 0.13921,14.98922 0.0464,4.96547 0,9.46688 0,14.20031 0,4.73344 0.43313,9.37407 0.64969,14.0611 0.21656,4.68703 -0.18563,2.25843 -0.27844,3.38765 -0.0928,1.12922 -0.26297,4.53235 -0.37125,6.77532 -0.10828,2.24296 0.17016,9.08789 0.13922,6.79851 0.0309,2.31258 -0.12375,3.6893 -0.18562,5.49914 -0.0619,1.80985 0.10828,1.84078 0.16242,2.76117 0.0541,0.92039 -0.0619,0.4486 -0.0928,0.6729 -0.0309,0.22429 -0.0155,0.7889 -0.0232,1.20656 -0.008,0.41765 0.17016,0.94359 0.23203,1.39219 0.0619,0.44859 0.0851,0.14695 0.13922,0.25523 0.0541,0.10828 0.33258,-0.11602 0.51047,-0.18562 0.17789,-0.0696 0.35578,-0.89719 0.53367,-1.34579 0.17789,-0.44859 0.46406,-1.84078 0.67289,-2.73797 0.20883,-0.89718 1.06735,-3.49593 1.60102,-5.2439 0.53367,-1.74797 0.61875,-1.99547 0.95133,-3.01641 0.33257,-1.02094 2.53687,-7.2239 3.80531,-10.83586 1.26843,-3.61195 1.54687,-6.03281 2.32031,-9.04922 0.77344,-3.0164 1.82531,-3.31031 2.73797,-4.96547 0.91265,-1.65515 2.86172,-6.7289 4.26937,-10.07015 1.40766,-3.34125 1.16016,-3.85172 1.76344,-5.80078 0.60328,-1.94907 3.43406,-8.07469 5.10469,-12.06563 1.67062,-3.99093 1.79437,-6.93 2.73797,-10.395 0.94359,-3.465 2.01093,-13.92187 2.97,-20.88281 0.95906,-6.960936 1.70156,-3.990938 2.55234,-5.986407 0.85078,-1.995469 0.6961,-1.747967 1.02094,-2.598748 0.32484,-0.850783 0.51047,-0.727032 0.78891,-1.11375 0.27843,-0.38672 0.95906,-0.495001 1.43859,-0.7425 z"
       inkscape:path-effect="#path-effect2" /><g
       id="g18"><path
         style="opacity:1;fill:#f8affe;fill-opacity:0.909804;stroke:#000000;stroke-width:0.0869389;stroke-opacity:1"
         d="m 65.848694,67.18608 a 5.2889466,7.4516397 9.6477558 0 0 -5.771741,6.512781 5.2889466,7.4516397 9.6477558 0 0 -0.138493,1.672249 7.4516397,5.2889466 37.274486 0 0 -0.820105,-0.694531 7.4516397,5.2889466 37.274486 0 0 -9.132776,-0.304374 7.4516397,5.2889466 37.274486 0 0 2.726449,8.721948 7.4516397,5.2889466 37.274486 0 0 4.317049,1.883089 5.2889466,7.4516397 41.985792 0 0 -3.535701,2.510958 5.2889466,7.4516397 41.985792 0 0 -1.053166,9.077482 5.2889466,7.4516397 41.985792 0 0 8.916252,-2.000911 5.2889466,7.4516397 41.985792 0 0 1.647961,-2.474785 7.4516397,5.2889466 63.647325 0 0 0.903304,2.727999 7.4516397,5.2889466 63.647325 0 0 8.047571,4.329452 7.4516397,5.2889466 63.647325 0 0 1.431437,-9.024773 7.4516397,5.2889466 63.647325 0 0 -2.277897,-3.013769 5.2889466,7.4516397 71.655142 0 0 3.98477,-0.481108 5.2889466,7.4516397 71.655142 0 0 5.408455,-7.365958 5.2889466,7.4516397 71.655142 0 0 -8.737968,-2.674773 5.2889466,7.4516397 71.655142 0 0 -1.768367,0.775664 5.2889466,7.4516397 9.6477558 0 0 0.509529,-1.891358 5.2889466,7.4516397 9.6477558 0 0 -3.965132,-8.232572 5.2889466,7.4516397 9.6477558 0 0 -0.691431,-0.05271 z"
         id="path5" /><ellipse
         style="opacity:1;fill:url(#radialGradient5);fill-opacity:1;stroke:none;stroke-width:0.147448"
         id="path3-1"
         cx="64.935707"
         cy="83.367889"
         rx="5.4309015"
         ry="5.4050398" /></g><use
       x="0"
       y="0"
       xlink:href="#g18"
       id="use18"
       transform="matrix(1.1111044,-0.34773589,0.34773589,1.1111044,-4.4176166,-8.7504006)" /><use
       x="0"
       y="0"
       xlink:href="#g18"
       id="use18-7"
       transform="matrix(1.066854,0.46614992,-0.46614992,1.066854,110.55744,-32.827443)" /></g><g
     id="g7"
     transform="matrix(0.67769158,0,0,0.67769158,30.714474,50.679022)"><g
       inkscape:label="Lapis 1"
       id="layer1-0" /><g
       id="g34"
       transform="matrix(1.3569034,0,0,1.3569034,-26.589604,-71.195379)"><path
         style="opacity:1;fill:#577f6d;fill-opacity:1;stroke:#000000;stroke-width:0.132292;stroke-dasharray:none;stroke-opacity:1"
         d="m 145.31413,96.324869 c -0.42519,7.985191 -1.184,15.952611 -2.27377,23.874511 -1.37125,9.96803 -3.27439,19.89402 -6.40787,29.45557 -2.6317,8.03041 -6.11774,15.7614 -10.02523,23.25439 -3.4491,6.61398 -7.23346,13.05997 -10.33529,19.84375 -5.93089,12.97102 -9.28573,27.0401 -10.64534,41.23779 -0.83144,8.68231 -0.905,17.60328 1.65364,25.94157 0.11901,0.38782 0.24406,0.776 0.30307,1.17736 0.059,0.40136 0.0491,0.82106 -0.0964,1.19976 -0.15787,0.41104 -0.47045,0.75349 -0.84509,0.98484 -0.38209,0.23595 -0.83135,0.36175 -1.28041,0.35853 -0.44906,-0.003 -0.89647,-0.13543 -1.27514,-0.37683 -0.51816,-1.01562 -0.95251,-2.07397 -1.2972,-3.16078 -0.89548,-2.82348 -1.1766,-5.79987 -1.42508,-8.75151 -0.26509,-3.14903 -0.4992,-6.30391 -0.51158,-9.46405 -0.0118,-3.01684 0.17606,-6.0646 -0.40194,-9.02557 -0.44186,-2.26356 -1.320031,-4.414 -2.119368,-6.57734 -1.438649,-3.89358 -2.640716,-7.88804 -4.457972,-11.61996 -1.749641,-3.59307 -4.042926,-6.88801 -6.175386,-10.26795 -2.513554,-3.98397 -4.811674,-8.10029 -7.308151,-12.09499 -2.65542,-4.24903 -5.531839,-8.35503 -8.404376,-12.46039 -3.134387,-4.47959 -6.269208,-8.96616 -9.062106,-13.66625 -2.651095,-4.46145 -4.989015,-9.10794 -7.015826,-13.88548 -2.897637,-6.83023 -5.169033,-13.97474 -6.065764,-21.33981 -0.919743,-7.55407 -0.382136,-15.19785 -0.07308,-22.80143 0.009,-0.22085 0.01804,-0.44366 0.07308,-0.65773 0.04596,-0.17874 0.124306,-0.34994 0.23634,-0.4966 0.112033,-0.14666 0.258229,-0.26829 0.426418,-0.34428 0.168188,-0.076 0.358417,-0.10526 0.540518,-0.0753 0.182102,0.03 0.355013,0.12045 0.477598,0.25841 0.0888,0.0999 0.150192,0.22264 0.185881,0.35149 0.03569,0.12884 0.04626,0.26382 0.04038,0.39738 -0.01176,0.26714 -0.08799,0.52652 -0.15318,0.78584 -0.424054,1.68679 -0.392655,3.45241 -0.292325,5.18879 0.211005,3.65179 0.714691,7.28093 1.315466,10.88914 0.776232,4.662 1.715503,9.29754 2.850179,13.88549 1.616639,6.53672 3.635021,12.98886 6.358093,19.14735 1.979206,4.47617 4.332174,8.79609 7.161988,12.78927 2.596292,3.66365 5.579152,7.03358 8.404373,10.52374 5.279371,6.52191 10.024708,13.48971 13.958567,20.90131 2.600248,4.89901 4.840203,9.97909 7.235071,14.98171 0.620543,1.29625 1.254536,2.59507 1.656913,3.97471 0.39262,1.34619 0.57852,2.79805 1.37783,3.95022 0.11282,0.16263 0.23991,0.32386 0.28422,0.51676 0.0216,0.0939 0.0225,0.1921 0.0495,0.28461 0.0135,0.0463 0.0338,0.0911 0.0643,0.12838 0.0305,0.0373 0.0719,0.0667 0.11873,0.0779 0.0327,0.008 0.0674,0.007 0.0998,-0.002 0.0324,-0.009 0.0626,-0.0255 0.0883,-0.0471 0.0515,-0.0433 0.0843,-0.106 0.0995,-0.17149 0.0306,-0.13099 -0.005,-0.26693 -0.0293,-0.39925 -0.0717,-0.3931 -0.0407,-0.79895 0.0349,-1.19133 0.0756,-0.39238 0.19486,-0.77473 0.30104,-1.15995 0.75372,-2.73442 0.84418,-5.59944 1.11104,-8.42326 0.32426,-3.43123 0.9143,-6.83165 1.3205,-10.25415 0.39724,-3.34699 0.61847,-6.71499 0.65774,-10.08524 0.0472,-4.04875 -0.16812,-8.09711 -0.51157,-12.13154 -0.52974,-6.22262 -1.3646,-12.41886 -2.48477,-18.5627 -0.9779,-5.36354 -2.17328,-10.68846 -2.996347,-16.07793 -0.986302,-6.45832 -1.435167,-12.99134 -2.484771,-19.43968 -0.837444,-5.14491 -2.054779,-10.22024 -2.996343,-15.34712 -1.387346,-7.55419 -2.174845,-15.231079 -2.082824,-22.911056 0.04412,-3.681855 0.289906,-7.357845 0.47503,-11.035308 0.03554,-0.706041 0.06886,-1.41244 0.07308,-2.119362 0.0041,-0.683073 -0.01882,-1.369409 0.07308,-2.046283 0.02894,-0.213153 0.06923,-0.424952 0.08674,-0.639347 0.01751,-0.214395 0.01162,-0.433546 -0.0502,-0.63958 -0.104856,-0.349471 -0.362889,-0.638847 -0.458761,-0.990888 -0.04794,-0.17602 -0.0516,-0.370376 0.02674,-0.535132 0.03917,-0.08238 0.09856,-0.155754 0.173956,-0.207099 0.07539,-0.05134 0.16696,-0.07993 0.258073,-0.07561 0.07199,0.0034 0.14201,0.02689 0.205814,0.0604 0.06381,0.03352 0.12188,0.07691 0.177864,0.122301 0.70323,0.570121 1.087185,1.458114 1.237616,2.350829 0.150431,0.892715 0.0925,1.805363 0.05958,2.710066 -0.05536,1.521677 -0.03859,3.044911 -0.03654,4.567594 0.004,2.947667 -0.04722,5.895572 0,8.842863 0.03965,2.475036 0.148713,4.948985 0.328867,7.417774 0.28765,3.941899 0.7567,7.871109 1.427686,11.766119 0.411219,2.38709 0.898118,4.76064 1.422493,7.12545 0.414462,1.86913 0.852387,3.73306 1.315467,5.59074 0.56544,2.2683 1.16903,4.53027 1.57125,6.83312 0.38684,2.21482 0.58566,4.45757 0.87698,6.68696 0.45538,3.48491 1.13672,6.93642 1.64433,10.41411 0.36947,2.53127 0.64683,5.07593 1.05969,7.60048 0.75147,4.59512 1.94927,9.10819 2.70401,13.70278 0.82219,5.00515 1.11439,10.07971 1.60779,15.12788 0.3362,3.43977 0.76683,6.88967 0.58466,10.34103 -0.10516,1.9924 -0.41398,3.96828 -0.58466,5.95614 -0.13578,1.58147 -0.18405,3.16963 -0.32886,4.7503 -0.0186,0.20267 -0.0389,0.40627 -0.0913,0.60293 -0.0412,0.15478 -0.1024,0.30585 -0.11594,0.46546 -0.007,0.0798 -0.001,0.16145 0.0244,0.23734 0.0256,0.0759 0.0721,0.14585 0.13726,0.19244 0.073,0.0522 0.16788,0.0725 0.2558,0.0548 l 0.90439,-2.64921 c 0.48798,-0.96723 0.9213,-1.96203 1.2972,-2.97807 0.56271,-1.52099 0.99583,-3.0865 1.51644,-4.62241 1.01764,-3.00228 2.3655,-5.88017 3.70889,-8.75151 0.34176,-0.73048 0.68343,-1.46101 1.02314,-2.19244 1.73058,-3.72608 3.41295,-7.48044 5.40803,-11.07185 0.86646,-1.55975 1.79077,-3.08666 2.66747,-4.64068 5.1495,-9.1279 8.61408,-19.11829 11.2911,-29.25088 0.83036,-3.14295 1.58789,-6.30651 2.19244,-9.50059 1.59452,-8.4245 2.11659,-17.01187 3.28867,-25.50545 0.32044,-2.32211 0.68973,-4.681385 0.32886,-6.997555 -0.15496,-0.994601 -0.44404,-1.974868 -0.4535,-2.981425 -0.005,-0.503278 0.0625,-1.011723 0.2461,-1.480334 0.18362,-0.468612 0.48848,-0.896419 0.90168,-1.183787 0.26704,-0.185721 0.57826,-0.311016 0.90171,-0.345438 0.32345,-0.03442 0.65863,0.02418 0.9436,0.181004 0.27261,0.150022 0.49333,0.385758 0.64758,0.655999 0.15425,0.27024 0.24412,0.574117 0.28744,0.88225 0.0866,0.616266 -0.009,1.241353 -0.0763,1.860042 -0.0811,0.74726 -0.12058,1.499045 -0.11808,2.250693 z"
         id="path19-6"
         sodipodi:nodetypes="csssssssscssssssssssssssssssssssssssssssssssssssssssssssssssssssssssssscsccsssssssssscsscc"
         inkscape:original-d="m 145.31413,96.324869 c 0.13116,0.731961 -1.51584,15.916341 -2.27377,23.874511 -0.75792,7.95817 -4.30637,19.70595 -6.40787,29.45557 -2.10151,9.74962 -6.61459,15.43403 -10.02523,23.25439 -3.41065,7.82037 -6.92464,13.22917 -10.33529,19.84375 -3.41064,6.61458 -7.09689,27.49186 -10.64534,41.23779 -3.54845,13.74593 1.13688,17.25993 1.65364,25.94157 0.51677,8.68165 0.10336,1.65365 0.20671,2.37712 0.10335,0.72347 -1.1207,1.46716 -0.84509,0.98484 0.2756,-0.48231 -3.40131,-0.0973 -2.55555,-0.0183 -0.82749,-0.0608 -1.72959,-4.20219 -1.2972,-3.16078 0.43241,1.04142 -0.95006,-5.82216 -1.42508,-8.75151 -0.47503,-2.92935 -0.34105,-6.33373 -0.51158,-9.46405 -0.17052,-3.13033 -0.26796,-5.99269 -0.40194,-9.02557 -0.13399,-3.03288 -1.425093,-4.40925 -2.119368,-6.57734 -0.694274,-2.16808 -2.97198,-7.73445 -4.457972,-11.61996 -1.48599,-3.8855 -4.116925,-6.8453 -6.175386,-10.26795 -2.058463,-3.42265 -4.859922,-8.05115 -7.308151,-12.09499 -2.448232,-4.04384 -5.602917,-8.35565 -8.404376,-12.46039 -2.801456,-4.10475 -6.090126,-9.11083 -9.062106,-13.66625 -2.971982,-4.55541 -4.628496,-9.20827 -7.015826,-13.88548 -2.387328,-4.67722 -4.043842,-14.22654 -6.065764,-21.33981 -2.021922,-7.11326 -0.02437,-15.17659 -0.07308,-22.80143 -0.04872,-7.62483 0,-0.43849 0.07308,-0.65773 0.07308,-0.21924 1.193665,-0.41413 1.680874,-0.65773 0.487209,-0.24361 0,0.97441 0.07308,1.53471 0.07308,0.56029 -0.194884,3.45919 -0.292325,5.18879 -0.09744,1.72959 0.876977,7.25942 1.315466,10.88914 0.438489,3.62972 1.900121,9.25699 2.850179,13.88549 0.95006,4.62849 4.263088,12.81362 6.358093,19.14735 2.095003,6.33373 4.750298,8.50182 7.161988,12.78927 2.41169,4.28745 5.627275,6.99146 8.404373,10.52374 2.777099,3.53227 9.25699,13.90984 13.958567,20.90131 4.70158,6.99146 4.872101,10.01216 7.235071,14.98171 2.362973,4.96954 1.120976,2.58616 1.656913,3.97471 0.53593,1.38855 0.93578,2.6507 1.37783,3.95022 0.44206,1.29951 0.20671,0.34451 0.28422,0.51676 0.0775,0.17226 0.13781,0.32729 0.23255,0.49093 0.0947,0.16364 0.34451,-0.81821 0.25838,-0.62012 -0.0861,0.19809 0.21532,-1.55891 0.3359,-2.35128 0.12057,-0.79237 0.7493,-5.62411 1.11104,-8.42326 0.36174,-2.79913 0.75853,-7.27459 1.3205,-10.25415 0.56197,-2.97956 0.5603,-6.30937 0.65774,-10.08524 0.0974,-3.77588 -0.36541,-8.03897 -0.51157,-12.13154 -0.14617,-4.09256 -1.63216,-12.39949 -2.48477,-18.5627 -0.85262,-6.16321 -1.99757,-10.74298 -2.996347,-16.07793 -0.998781,-5.33495 -1.656514,-12.93543 -2.484771,-19.43968 -0.828257,-6.50426 -1.973202,-10.3045 -2.996343,-15.34712 -1.023141,-5.04262 -1.400728,-15.261857 -2.082824,-22.911056 -0.682093,-7.649197 0.316688,-7.356872 0.47503,-11.035308 0.158346,-3.678436 0.04872,-1.412909 0.07308,-2.119362 0.02437,-0.706456 0.04872,-1.364189 0.07308,-2.046283 0.02437,-0.682095 0.02436,-0.852618 0.03654,-1.278927 0.01218,-0.426309 5e-6,-1.205822 7e-6,-1.808733 3e-6,-0.602911 0.255786,0.09744 0.383678,0.182704 0.127893,0.08526 0.864798,3.422651 1.297197,5.060895 0.432399,1.638244 -0.02436,3.045063 -0.03654,4.567594 -0.01218,1.522532 0,5.870882 0,8.842863 0,2.971982 0.182704,4.933002 0.328867,7.417774 0.146163,2.484771 1.062279,7.868439 1.427686,11.766119 0.365408,3.89768 0.874382,4.77466 1.422493,7.12545 0.548111,2.35079 0.864798,3.71498 1.315467,5.59074 0.45067,1.87576 1.05968,4.54323 1.57125,6.83312 0.51157,2.28989 0.57247,4.45797 0.87698,6.68696 0.30451,2.22898 1.09622,6.95492 1.64433,10.41411 0.54812,3.45919 0.70646,5.07917 1.05969,7.60048 0.35322,2.52131 1.77831,9.13519 2.70401,13.70278 0.9257,4.5676 1.09622,10.06089 1.60779,15.12788 0.51158,5.06698 0.38977,6.89402 0.58466,10.34103 0.19488,3.44701 -0.38977,3.97076 -0.58466,5.95614 -0.19488,1.98538 -0.21924,3.16687 -0.32886,4.7503 -0.10962,1.58343 -0.067,0.32278 -0.0913,0.60293 -0.0244,0.28014 -0.0579,0.66382 0.0457,0.89524 0.10354,0.23143 0.2619,-0.0548 0.2558,0.0548 -0.0122,-0.10963 1.17236,-3.40439 0.90439,-2.64921 0.2497,-0.75518 0.84653,-1.99756 1.2972,-2.97807 0.45067,-0.98051 1.03532,-3.07552 1.51644,-4.62241 0.48112,-1.54689 2.38733,-5.70644 3.70889,-8.75151 1.32156,-3.04506 0.75517,-1.58343 1.02314,-2.19244 0.26796,-0.60902 3.60535,-7.39342 5.40803,-11.07185 1.80268,-3.67844 1.80268,-3.05725 2.66747,-4.64068 0.8648,-1.58343 7.50304,-19.52494 11.2911,-29.25088 3.78806,-9.72593 1.46163,-6.38245 2.19244,-9.50059 0.73082,-3.11815 2.19245,-17.00363 3.28867,-25.50545 1.09622,-8.501815 0.10962,-4.464062 0.32886,-6.997555 0.21925,-2.533492 0.59684,-3.940311 0.69428,-5.645546 0.0974,-1.705235 1.11449,0.542021 1.84531,-0.164434 0.73081,-0.706454 0.83433,1.619974 0.85873,3.398291 0.0244,1.778317 -0.24924,1.518732 -0.11808,2.250693 z"
         inkscape:path-effect="#path-effect19-1" /><ellipse
         style="opacity:1;fill:url(#linearGradient21);fill-opacity:1;stroke:#000000;stroke-width:0.132292;stroke-dasharray:none;stroke-opacity:1"
         id="path20-3"
         ry="8.4605627"
         rx="5.3018107"
         cy="106.75006"
         cx="-153.95998"
         transform="rotate(-75)" /><use
         id="use21"
         inkscape:spray-origin="#path20"
         xlink:href="#path20-3"
         transform="rotate(120,71.761415,168.88784)" /><use
         id="use22"
         inkscape:spray-origin="#path20"
         xlink:href="#path20-3"
         transform="rotate(15,180.5868,98.044602)" /><use
         id="use23"
         inkscape:spray-origin="#path20"
         xlink:href="#path20-3"
         transform="rotate(90,84.375239,146.25296)" /><use
         id="use24"
         inkscape:spray-origin="#path20"
         xlink:href="#path20-3"
         transform="rotate(75,105.91836,131.08146)" /><use
         id="use25"
         inkscape:spray-origin="#path20"
         xlink:href="#path20-3"
         transform="rotate(45,163.32899,170.83279)" /><use
         id="use26"
         inkscape:spray-origin="#path20"
         xlink:href="#path20-3"
         transform="rotate(135,94.744808,159.52133)" /><use
         id="use27"
         inkscape:spray-origin="#path20"
         xlink:href="#path20-3"
         transform="translate(31.716416,-29.271739)" /><use
         id="use28"
         inkscape:spray-origin="#path20"
         xlink:href="#path20-3"
         transform="rotate(105,115.23425,146.90724)" /><use
         id="use29"
         inkscape:spray-origin="#path20"
         xlink:href="#path20-3"
         transform="rotate(75,148.89914,142.61264)" /><use
         id="use30"
         inkscape:spray-origin="#path20"
         xlink:href="#path20-3"
         transform="rotate(75,159.98091,185.3617)" /><use
         id="use31"
         inkscape:spray-origin="#path20"
         xlink:href="#path20-3"
         transform="rotate(45,181.82162,235.90153)" /><use
         id="use32"
         inkscape:spray-origin="#path20"
         xlink:href="#path20-3"
         transform="rotate(120,119.38796,176.62201)" /><use
         id="use33"
         inkscape:spray-origin="#path20"
         xlink:href="#path20-3"
         transform="rotate(15,201.35189,409.14344)" /><use
         id="use34"
         inkscape:spray-origin="#path20"
         xlink:href="#path20-3"
         transform="rotate(150,101.99774,179.80078)" /></g></g><g
     inkscape:groupmode="layer"
     id="layer2"
     inkscape:label="PIta"><path
       style="opacity:1;fill:#ffffff;fill-opacity:1;stroke:#020000;stroke-width:0.264583;stroke-dasharray:none;stroke-opacity:1"
       d="m 76.035807,146.96035 h -0.01545 l -2.779537,-2.88763 c -0.437277,-0.41455 -0.862301,-0.84203 -1.274342,-1.28168 -0.3157,-0.33685 -0.811635,-0.89768 -1.110816,-1.24929 -1.080504,-1.26986 -2.110609,-2.58917 -3.366098,-3.68303 -0.732718,-0.63839 -1.541965,-1.19716 -2.431957,-1.58745 -0.889993,-0.3903 -1.863954,-0.60854 -2.834567,-0.56033 -0.9621,0.0478 -1.910411,0.36069 -2.708964,0.89943 -0.798552,0.53873 -1.444582,1.30224 -1.83867,2.18123 -0.386621,0.86233 -0.528637,1.81336 -0.849302,2.70233 -0.484048,1.34191 -1.360028,2.50498 -1.961121,3.7987 -0.321054,0.691 -0.565183,1.43112 -0.58679,2.19275 -0.02616,0.92215 0.287354,1.85016 0.867399,2.56751 0.580046,0.71735 1.421871,1.21817 2.329069,1.38561 -0.08185,1.08332 -0.01409,2.17784 0.200745,3.24279 0.296113,1.46786 0.865867,2.86346 1.358884,4.2774 0.128624,0.36888 0.252175,0.73954 0.370606,1.11182 0.05573,0.69104 0.4042,1.3537 0.941955,1.79126 0.251407,0.20457 0.538527,0.35954 0.816128,0.52684 0.277602,0.1673 0.551255,0.35158 0.758944,0.60041 0.126224,0.15123 0.225979,0.32449 0.293394,0.50958 -0.168861,0.21604 -0.343966,0.4272 -0.525023,0.63312 -0.723845,0.82326 -1.541178,1.56111 -2.254515,2.39349 -1.083701,1.26455 -1.917597,2.74234 -2.439815,4.32373 -0.165616,0.63007 -0.294589,1.26977 -0.386049,1.91479 -0.01822,0.12848 -0.03495,0.25718 -0.05019,0.38605 l 0.216188,0.0206 4.949503,-0.005 0.262056,-0.0874 0.589629,1.96544 c 1.005835,1.1204 1.860385,2.37644 2.533222,3.72339 0.04057,0.0812 0.08097,0.16353 0.138083,0.2341 0.05712,0.0706 0.133387,0.12944 0.222245,0.14807 0.08326,0.0174 0.171233,-0.002 0.247008,-0.0406 0.07577,-0.0387 0.140724,-0.0956 0.200672,-0.15592 0.315898,-0.31807 0.508174,-0.74029 0.630212,-1.17165 0.122037,-0.43136 0.179709,-0.87783 0.265151,-1.3179 0.411505,-2.11947 1.490913,-4.10418 3.046418,-5.60147 0.549451,-0.68802 1.099043,-1.37592 1.648776,-2.06371 0.481792,-0.60279 0.963766,-1.20558 1.428524,-1.8216 0.922802,-1.22313 1.776604,-2.49689 2.604244,-3.78632 0.401632,-0.62573 0.797708,-1.25615 1.142698,-1.9148 0.755602,-1.44259 1.256753,-3.00163 1.791258,-4.53991 0.0468,-0.13468 0.09388,-0.26927 0.141237,-0.40375 l 1.015818,0.008 1.048229,-0.20746 0.373889,-0.30425 c 0.06555,-0.0988 0.163918,-0.17538 0.275756,-0.21471 0.111837,-0.0393 0.2365,-0.0412 0.34945,-0.005 0.174088,0.0555 0.308237,0.19252 0.431303,0.32758 0.359441,0.39448 0.701523,0.82422 1.168339,1.08286 0.214294,0.11873 0.448036,0.19716 0.674126,0.29152 0.22609,0.0943 0.449771,0.2082 0.621393,0.38303 0.156265,0.15918 0.262349,0.36282 0.327872,0.57605 0.06552,0.21322 0.09212,0.43658 0.104502,0.6593 0.03749,0.67446 -0.05267,1.34856 -0.09265,2.02288 -0.04607,0.7771 -0.02538,1.55816 0.06177,2.33173 0.215883,1.20704 0.416649,2.41678 0.602234,3.62884 0.148737,0.97141 0.287723,1.94431 0.416931,2.91851 0.352877,1.31499 0.781034,2.60978 1.281676,3.87591 0.520222,1.31565 1.118714,2.60034 1.791258,3.84503 0.367659,1.19062 0.927886,2.32155 1.652281,3.33545 0.421569,0.59005 0.902298,1.14748 1.204465,1.8067 0.09165,0.19995 0.166458,0.40852 0.279447,0.59724 0.11299,0.18871 0.271177,0.36035 0.477206,0.43736 0.121411,0.0454 0.254256,0.0557 0.38306,0.0412 0.128803,-0.0145 0.25396,-0.0532 0.373593,-0.10304 0.5317,-0.22169 0.945197,-0.65574 1.297117,-1.11182 0.715741,-0.92758 1.248707,-2.00719 1.468493,-3.15801 0.03209,-0.16805 0.05961,-0.34285 0.152905,-0.48627 0.08828,-0.13572 0.230858,-0.23181 0.386046,-0.27796 0.174758,-0.052 0.367138,-0.0425 0.535942,0.0264 l 1.25426,0.22344 c 1.083337,-0.01 2.16556,-0.13825 3.22112,-0.38217 0.28971,-0.0669 0.58256,-0.14472 0.83476,-0.30224 0.1261,-0.0788 0.24084,-0.1773 0.33002,-0.29625 0.0892,-0.11895 0.15226,-0.25881 0.1728,-0.40606 0.0284,-0.20347 -0.0243,-0.40879 -0.0819,-0.60601 -0.17167,-0.58826 -0.39056,-1.16272 -0.65389,-1.71605 -0.49194,-0.85154 -0.99645,-1.69582 -1.51331,-2.53247 -1.59814,-2.58694 -3.324839,-5.1209 -4.471584,-7.93715 -0.129128,-0.31712 -0.25163,-0.63927 -0.430366,-0.93132 -0.05191,-0.0848 -0.108772,-0.16753 -0.145476,-0.25994 -0.01835,-0.0462 -0.03152,-0.0947 -0.03563,-0.14428 -0.0041,-0.0495 9.93e-4,-0.10019 0.01813,-0.14686 0.02884,-0.0785 0.09053,-0.14204 0.162139,-0.1853 0.07365,-0.0445 0.158136,-0.0694 0.24365,-0.0789 0.08551,-0.01 0.172188,-0.004 0.257199,0.009 0.170024,0.0266 0.333799,0.0839 0.502874,0.11599 0.347944,0.066 0.707279,0.0229 1.055042,-0.044 0.347764,-0.0669 0.692182,-0.15765 1.045054,-0.18762 0.452953,-0.0385 0.907542,0.0241 1.359092,0.0766 0.45155,0.0524 0.91093,0.0946 1.35868,0.0161 0.4447,-0.078 0.86503,-0.27473 1.22555,-0.5465 0.36052,-0.27178 0.66239,-0.6172 0.90542,-0.99769 0.59584,-0.93283 0.83299,-2.09528 0.61768,-3.18103 -0.12582,-0.63445 -0.39662,-1.22902 -0.63534,-1.83017 -0.23873,-0.60114 -0.44964,-1.22908 -0.44559,-1.87588 0.003,-0.50978 0.14002,-1.00885 0.29524,-1.49443 0.15523,-0.48559 0.33059,-0.96767 0.41508,-1.47041 0.0938,-0.55795 0.0715,-1.14101 -0.11233,-1.67609 -0.18383,-0.53509 -0.5355,-1.01919 -1.01492,-1.31963 -0.37888,-0.23744 -0.82122,-0.35439 -1.21219,-0.57135 -0.0962,-0.0534 -0.18908,-0.11273 -0.27795,-0.17758 l 0.16641,-0.15161 1.74032,-1.08518 a 1.0725338,1.0725338 121.44924 0 0 0.50121,-0.81953 l 0.0521,-0.6146 a 1.8150115,1.8150115 74.453456 0 0 -0.33898,-1.21849 l -0.26587,-0.36678 c -0.21868,-0.30168 -0.6407,-0.72356 -0.93133,-0.95667 -0.58934,-0.4727 -1.14383,-0.98884 -1.65736,-1.54297 -1.574746,-1.69925 -2.746052,-3.73211 -4.246517,-5.4973 -0.31929,-0.37562 -0.66549,-0.74804 -1.111813,-0.9574 -0.436024,-0.20453 -0.950882,-0.23489 -1.407922,-0.083 -0.08907,0.0296 -0.175762,0.0661 -0.259293,0.10872 -0.563231,0.28768 -1.233739,1.115 -1.745441,1.50304 l -2.326358,1.86034 c -0.528187,0.42238 -1.274248,1.2115 -1.660521,1.76664 -0.998069,1.43438 -1.967105,2.88897 -2.906306,4.36258 -0.488545,0.76653 -0.969019,1.5382 -1.441315,2.31484 -0.08576,0.11747 -0.20357,0.2113 -0.337253,0.26859 -0.133684,0.0573 -0.282876,0.0779 -0.427084,0.059 -0.187702,-0.0246 -0.361105,-0.11377 -0.518756,-0.21858 -0.157651,-0.10481 -0.303772,-0.22648 -0.463956,-0.32737 -0.313248,-0.1973 -0.67838,-0.3114 -1.048232,-0.32757 -0.401285,0.32814 -0.874126,0.56832 -1.375801,0.69882 -0.69135,0.17984 -1.417112,0.15075 -2.129216,0.20746 -0.37885,0.0302 -0.755738,0.085 -1.1275,0.16389 z"
       id="path14"
       sodipodi:nodetypes="cccsssssscsscsscsscscccccsssscsssssccccsssssscscscssssssssccssscsssssssssssssscccccssscccscsscsccc"
       transform="matrix(1.5432575,0,0,1.5432575,-19.33144,-21.964641)"
       inkscape:original-d="m 76.035807,146.96035 c -0.449184,0.0585 -0.01545,0 -0.01545,0 0.01545,0 -3.659727,-4.00459 -2.779537,-2.88763 -0.864746,-1.10152 -0.488994,-0.91107 -1.837583,-1.89935 -1.348592,-0.98828 -11.542804,-8.10956 -9.180197,-6.46243 2.362605,1.64714 -3.021462,2.03318 -4.547634,3.08066 -1.526173,1.04747 -0.576498,1.82214 -0.849302,2.70233 -0.272807,0.88019 -1.29712,2.52217 -1.961121,3.7987 -0.664001,1.27653 -0.787535,2.90822 -0.58679,2.19275 0.200744,-0.71548 4.272253,5.27597 3.196468,3.95312 1.075785,1.30741 0.133829,2.15671 0.200745,3.24279 0.06692,1.08608 1.816994,5.70835 1.358884,4.2774 -0.458108,-1.43095 0.607382,1.5133 0.370606,1.11182 0.252217,0.41693 0.74121,1.22505 0.941955,1.79126 0.200744,0.5662 1.039754,0.7515 1.575072,1.12725 0.535318,0.37575 0.386046,0.66915 0.293394,0.50958 0.07721,0.14413 -0.365456,0.41694 -0.525023,0.63312 -0.159565,0.21619 -1.497862,1.60596 -2.254515,2.39349 -0.75665,0.78754 -1.611101,2.88248 -2.439815,4.32373 0.81327,-1.45669 -0.262512,1.27138 -0.386049,1.91479 -0.123534,0.64341 -0.06563,0.51473 -0.05019,0.38605 -0.01159,0.12868 0.286962,0.0348 0.216188,0.0206 0.07077,0.036 3.310586,-0.003 4.949503,-0.005 -1.660756,0.002 0.353049,-0.12375 0.262056,-0.0874 0.08007,-0.0582 0.786173,2.62422 0.589629,1.96544 0.185624,0.64786 1.685174,2.47862 2.533222,3.72339 0.848045,1.24478 0.484076,0.50592 0.360328,0.38217 -0.123748,-0.12375 0.298455,-0.13103 0.44768,-0.19654 0.149228,-0.0655 0.596911,-1.6597 0.895363,-2.48955 0.298456,-0.82985 4.058251,-7.46499 3.046418,-5.60147 1.000914,-1.8526 2.220208,-2.82076 1.648776,-2.06371 -0.571428,0.75706 1.879845,-2.34936 1.428524,-1.8216 -0.451321,0.52775 1.736161,-2.52422 2.604244,-3.78632 0.868079,-1.26211 0.751503,-1.26624 1.142698,-1.9148 0.391194,-0.64856 1.19417,-3.04719 1.791258,-4.53991 0.597085,-1.49272 0.192709,-0.55817 0.141237,-0.40375 0.05693,-0.15988 1.352606,0.014 1.015818,0.008 0.336788,0.0117 1.39582,-0.27843 1.048229,-0.20746 0.22209,0.005 2.097324,-0.25531 0.373889,-0.30425 0.167426,-0.0637 0.463239,-0.11977 0.625206,-0.21987 0.161965,-0.10009 0.611363,0.34064 0.431303,0.32758 -2.438141,-0.1768 0.755416,0.71615 1.168339,1.08286 0.402302,0.35728 0.863679,0.45999 1.295519,0.67455 0.431842,0.21455 0.28825,0.83386 0.432374,1.23535 0.144124,0.40149 -0.06177,1.34859 -0.09265,2.02288 -0.03088,0.6743 0.0875,3.11411 0.06177,2.33173 0.04118,0.76694 0.406636,2.41408 0.602234,3.62884 0.195596,1.21476 0.561055,3.8862 0.416931,2.91851 0.159565,0.95225 0.859597,2.5788 1.281676,3.87591 0.422076,1.29712 2.383197,5.12671 1.791258,3.84503 0.576496,1.28168 2.213335,4.45241 1.652281,3.33545 -0.561054,-1.11696 0.813271,1.20961 1.204465,1.8067 0.391194,0.59708 0.494141,0.67429 0.756653,1.0346 0.262511,0.36031 0.504436,-0.0309 0.756653,-0.0618 0.252216,-0.0309 0.864745,-0.74121 1.297117,-1.11182 0.432371,-0.37061 1.96778,-4.21321 1.468493,-3.15801 -0.499287,1.05519 0.127166,-0.34215 0.152905,-0.48627 0.02574,-0.14413 0.247068,-0.17501 0.386046,-0.27796 0.138977,-0.10294 0.710951,0.0315 0.535942,0.0264 0.16409,-0.006 1.674165,0.30337 1.25426,0.22344 0.414446,0.0854 2.14559,-0.25296 3.22112,-0.38217 1.07553,-0.12921 0.89172,-0.6697 1.33758,-1.00455 0.44586,-0.33485 -0.0546,-0.40401 -0.0819,-0.60601 -0.0273,-0.202 -0.86671,-2.2855 -0.65389,-1.71605 -0.19738,-0.56173 -1.00372,-1.68574 -1.51331,-2.53247 -0.50958,-0.84673 -2.988332,-5.30599 -4.471584,-7.93715 -1.483251,-2.63115 -0.2775,-0.60374 -0.430366,-0.93132 -0.152868,-0.32757 -0.108653,-0.36738 -0.16298,-0.55108 -0.05433,-0.18369 0.108093,-0.12353 0.162139,-0.1853 0.05405,-0.0618 0.64856,0.0309 1.003723,0.0463 0.355164,0.0154 1.441241,-0.17501 2.100096,-0.23163 0.658852,-0.0566 1.791252,0.0824 2.717772,0.0927 0.92651,0.0103 1.42065,-1.05005 2.13097,-1.54419 0.71033,-0.49414 0.3912,-2.12069 0.61768,-3.18103 0.22648,-1.06034 -0.70003,-2.45011 -1.08093,-3.70605 -0.3809,-1.25594 0.45296,-1.99715 0.71032,-2.96484 0.25737,-0.96769 -1.54933,-4.00459 -1.12725,-2.99572 0.42208,1.00887 -0.80813,-0.3809 -1.21219,-0.57135 -0.40406,-0.19045 -0.37061,-0.23935 -0.27795,-0.17758 -0.0927,-0.0695 0.15611,-0.0976 0.16641,-0.15161 -0.0103,0.0695 2.96569,-1.81208 2.19617,-1.36942 0.7618,-0.43494 0.20332,-2.43209 0.15442,-1.82214 0.0335,-0.60995 -1.40006,-1.94053 -1.05777,-1.45926 -0.32685,-0.46583 -1.45668,-1.29711 -2.19274,-1.9534 -0.73607,-0.65628 -2.841304,-3.67516 -4.246517,-5.4973 -1.40521,-1.82214 -0.730914,-0.62797 -1.111813,-0.9574 -0.380903,-0.32943 -1.663864,0.54947 -2.486145,0.82614 1.559093,0.28712 -1.060322,1.06266 -0.926511,0.7026 -0.329428,0.20332 -4.386818,3.50016 -3.282725,2.62513 -1.125932,0.87503 -2.439989,3.56253 -3.61046,5.36443 -1.170472,1.8019 -1.914475,3.10101 -1.441315,2.31484 -0.451321,0.78617 -0.509559,0.2111 -0.764337,0.32757 -0.254777,0.11647 -0.640582,-0.36397 -0.982712,-0.54595 -0.342133,-0.18199 -1.390362,-0.45132 -1.048232,-0.32757 -0.34213,-0.14559 -0.917199,0.4586 -1.375801,0.69882 -0.4586,0.24022 -2.835315,0.27661 -2.129216,0.20746 0.706099,-0.0691 2.495552,-3.79568 -1.1275,0.16389 z"
       inkscape:path-effect="#path-effect14;#path-effect15" /><path
       style="opacity:1;fill:none;fill-opacity:1;stroke:#020000;stroke-width:0.264583;stroke-dasharray:none;stroke-opacity:1"
       d="m 78.259436,151.67013 c -0.656109,-0.0439 -1.308217,-0.14742 -1.945674,-0.30884 -0.668615,-0.16931 -1.32108,-0.40233 -1.945677,-0.69489 -0.963255,-0.30701 -2.006008,-0.36076 -2.995724,-0.15442 -1.027904,0.2143 -1.994438,0.70798 -2.77954,1.40521 -0.443733,0.39407 -0.82922,0.85015 -1.273955,1.24308 -0.483338,0.42704 -1.032517,0.77583 -1.505892,1.21389 -0.236687,0.21903 -0.454454,0.46098 -0.625052,0.73464 -0.170598,0.27366 -0.293225,0.58035 -0.332034,0.90049 -0.04535,0.37408 0.02677,0.76131 0.202308,1.09474 0.175534,0.33344 0.453523,0.61177 0.785972,0.78917 0.459247,0.24506 1.005977,0.29255 1.519727,0.20876 0.51375,-0.0838 0.999572,-0.29127 1.460555,-0.53304 0.459834,-0.24117 0.905617,-0.52204 1.266235,-0.89563 0.256079,-0.26529 0.466037,-0.57498 0.617675,-0.91107"
       id="path13"
       sodipodi:nodetypes="cscsssssssc"
       transform="matrix(1.5432575,0,0,1.5432575,-19.33144,-21.964641)"
       inkscape:original-d="m 78.259436,151.67013 c -0.648557,-0.10295 -1.297117,-0.2059 -1.945674,-0.30884 -0.64856,-0.10295 -2.589088,-0.93166 -1.945677,-0.69489 -0.62797,-0.25221 -1.992003,-0.10809 -2.995724,-0.15442 -1.003723,-0.0463 -2.134395,0.59181 -2.77954,1.40521 -0.601104,0.75787 -0.342547,0.43882 -1.273955,1.24308 -0.906964,0.78314 -1.92766,2.43724 -2.462978,2.84902 -0.535318,0.41179 0.648557,1.26109 0.98828,1.88391 0.339722,0.62282 1.997149,-0.22133 2.980282,-0.32428 0.983134,-0.10294 0.833861,-0.60223 1.266235,-0.89563 0.432372,-0.29339 0.411782,-0.59708 0.617675,-0.91107"
       inkscape:path-effect="#path-effect13" /><path
       style="opacity:1;fill:none;fill-opacity:1;stroke:#020000;stroke-width:0.264583;stroke-dasharray:none;stroke-opacity:1"
       d="m 73.642358,148.65628 c -1.753443,-1.58944 -3.676445,-2.99171 -5.725825,-4.17532 -1.42503,-0.82302 -2.923821,-1.5452 -4.520491,-1.94359 -0.98303,-0.24528 -2.044949,-0.36048 -2.991821,0 -0.267991,0.10202 -0.530577,0.24822 -0.69882,0.48043 -0.129242,0.17838 -0.194743,0.39948 -0.197764,0.61974 -0.003,0.22026 0.0547,0.43935 0.153071,0.63645 0.196731,0.39419 0.546043,0.69186 0.918217,0.92762 0.895629,0.56734 1.979113,0.83237 3.035499,0.7425"
       id="path12"
       sodipodi:nodetypes="csscssc"
       transform="matrix(1.5432575,0,0,1.5432575,-19.33144,-21.964641)"
       inkscape:original-d="m 73.642358,148.65628 c -1.543227,-1.03367 -4.138923,-3.09798 -5.725825,-4.17532 -1.586902,-1.07735 -3.006381,-1.27389 -4.520491,-1.94359 -1.514107,-0.66971 -1.987267,-0.0146 -2.991821,0 -1.004552,0.0145 -0.939038,0.62602 -0.69882,0.48043 0.24022,-0.14558 1.164701,2.91903 0.873524,2.18381 -0.291174,-0.73521 2.023666,0.495 3.035499,0.7425"
       inkscape:path-effect="#path-effect12" /><path
       style="fill:none;stroke:#000000;stroke-width:0.264583;stroke-opacity:1"
       d="m 57.412901,151.4771 c 0.770049,-0.34705 1.62897,-0.49467 2.470702,-0.42465 0.227387,0.0189 0.453437,0.0534 0.681268,0.0659 0.227831,0.0125 0.459883,0.002 0.677616,-0.0659 0.277416,-0.0869 0.516632,-0.26273 0.772094,-0.40149 0.755537,-0.4104 1.639279,-0.49123 2.4707,-0.71032 0.954792,-0.2516 1.848877,-0.68933 2.779541,-1.01917 1.558459,-0.55234 3.239924,-0.79948 4.879631,-0.58679 1.13249,0.1469 2.224486,0.50774 3.335445,0.77209 0.678048,0.16134 1.364589,0.28698 2.055831,0.37623"
       id="path1"
       sodipodi:nodetypes="csssssssc"
       transform="matrix(1.5432575,0,0,1.5432575,-19.33144,-21.964641)"
       inkscape:original-d="m 57.412901,151.4771 c 0.710327,-0.0824 1.760375,-0.31141 2.470702,-0.42465 0.710327,-0.11324 0.885335,0 1.358884,0 0.473551,0 0.525026,-0.26766 0.772094,-0.40149 0.24707,-0.13383 1.647134,-0.48384 2.4707,-0.71032 0.823569,-0.22649 1.842733,-0.66915 2.779541,-1.01917 0.936804,-0.35001 3.232499,-0.40149 4.879631,-0.58679 1.647134,-0.1853 2.244219,0.52502 3.335445,0.77209 1.091227,0.24707 1.592575,0.28358 2.055831,0.37623"
       inkscape:path-effect="#path-effect1" /><path
       style="opacity:1;fill:none;stroke:#000000;stroke-width:0.264583;stroke-opacity:1"
       d="m 62.199884,163.42139 c 0.979329,-0.4117 1.973632,-0.78778 2.980283,-1.12725 0.876565,-0.2956 1.762491,-0.56344 2.656004,-0.80298 l 1.744932,-0.35516 c 0.892423,-0.0956 1.766597,-0.3589 2.563352,-0.7721 1.366953,-0.70891 2.467233,-1.82896 3.690607,-2.76409 0.541512,-0.41393 1.111877,-0.79517 1.598876,-1.27203 0.487,-0.47687 0.893414,-1.06773 1.010802,-1.73914 0.05511,-0.31518 0.04509,-0.63775 0.03088,-0.9574 -0.03572,-0.80325 -0.09686,-1.60532 -0.123537,-2.40893 -0.0099,-0.29844 -0.01506,-0.59703 -0.01545,-0.89563 -0.134092,-0.13357 -0.267922,-0.2674 -0.401489,-0.40149 -0.357046,-0.35845 -0.712216,-0.71876 -1.06549,-1.08093 l -0.849302,-1.31256 -0.03088,-0.61767"
       id="path6"
       transform="matrix(1.5432575,0,0,1.5432575,-19.33144,-21.964641)"
       inkscape:original-d="m 62.199884,163.42139 c 1.003724,-0.37575 1.992003,-0.7515 2.980283,-1.12725 0.988279,-0.37575 3.53619,-1.07064 2.656004,-0.80298 0.864745,-0.26766 1.152993,-0.24192 1.744932,-0.35516 -0.591939,0.12868 1.719194,-0.51988 2.563352,-0.7721 0.844156,-0.25222 2.460406,-1.84273 3.690607,-2.76409 1.230204,-0.92137 1.724345,-1.98686 2.609678,-3.01117 0.885335,-1.02431 0.02574,-0.64856 0.03088,-0.9574 0.0052,-0.30883 -0.08236,-1.60595 -0.123537,-2.40893 -0.04118,-0.80298 -0.01545,-1.19417 -0.01545,-0.89563 0.01545,-0.29854 -0.272806,-0.26766 -0.401489,-0.40149 -0.128683,-0.13383 -1.436095,-1.43609 -1.06549,-1.08093 -0.386046,-0.33972 -1.132404,-1.74493 -0.849302,-1.31256 -0.298543,-0.43237 -0.02574,-0.41178 -0.03088,-0.61767"
       inkscape:path-effect="#path-effect6" /><path
       style="opacity:1;fill:none;stroke:#000000;stroke-width:0.264583;stroke-opacity:1"
       d="m 76.05669,157.42823 c -0.44563,1.09741 -1.008549,2.14716 -1.676077,3.12558 -0.341101,0.49997 -0.709435,0.98135 -1.102823,1.44131 -1.111717,1.4654 -2.277471,2.88981 -3.494098,4.26935 -0.353529,0.40087 -0.711612,0.79823 -1.091906,1.1738 -0.273117,0.26973 -0.567588,0.53431 -0.928122,0.66607 -0.378381,0.13828 -0.81315,0.11402 -1.173797,-0.0655 -0.100745,-0.1211 -0.145748,-0.28679 -0.12011,-0.44222 0.0297,-0.18007 0.155027,-0.3415 0.322111,-0.41492 l 0.4859,-0.89537 0.720658,-0.53503"
       id="path8"
       sodipodi:nodetypes="cscssscsccc"
       transform="matrix(1.5432575,0,0,1.5432575,-19.33144,-21.964641)"
       inkscape:original-d="m 76.05669,157.42823 c -0.549592,0.96088 -1.137404,2.15378 -1.676077,3.12558 -0.538673,0.97179 -1.466792,1.92539 -1.102823,1.44131 -0.353049,0.495 -2.325759,2.84988 -3.494098,4.26935 -1.168339,1.41948 -0.727938,0.78254 -1.091906,1.1738 -0.363969,0.39127 -0.618747,0.44041 -0.928122,0.66607 -0.309372,0.22566 -1.563243,-0.0855 -1.173797,-0.0655 -0.383987,-0.0145 -0.07825,-0.29299 -0.12011,-0.44222 -0.04185,-0.14923 0.427664,-0.55505 0.322111,-0.41492 0.100092,-0.14559 0.646047,-1.19018 0.4859,-0.89537 0.149227,-0.28935 0.476797,-0.35487 0.720658,-0.53503"
       inkscape:path-effect="#path-effect8" /><path
       style="fill:none;stroke:#000000;stroke-width:0.264583"
       d="m 78.21396,150.20551 c 0.688249,0.27613 1.317425,0.69849 1.833644,1.23089 0.264051,0.27233 0.498778,0.57307 0.69882,0.89536 0.392472,0.72557 0.690577,1.50211 0.884444,2.30392 0.03568,0.14757 0.06799,0.29718 0.07067,0.44898 0.0029,0.16494 -0.0298,0.33043 -0.09525,0.48186"
       id="path9"
       sodipodi:nodetypes="cscssc"
       transform="matrix(1.5432575,0,0,1.5432575,-19.33144,-21.964641)"
       inkscape:original-d="m 78.21396,150.20551 c 0.509556,0.34941 1.324088,0.85964 1.833644,1.23089 0.509556,0.37124 0.9354,1.19017 0.69882,0.89536 0.2475,0.28389 0.59327,1.53231 0.884444,2.30392 0.08135,0.21559 0.06208,0.35287 0.07067,0.44898 0.02214,0.24786 -0.09263,0.27467 -0.09525,0.48186"
       inkscape:path-effect="#path-effect10" /><path
       style="opacity:1;fill:none;stroke:#000000;stroke-width:0.264583"
       d="m 79.053969,146.70845 c 0.300457,0.20772 0.585404,0.43787 0.851686,0.6879 0.280147,0.26305 0.539625,0.54811 0.775256,0.85168 l 0.436761,0.52412"
       id="path10"
       transform="matrix(1.5432575,0,0,1.5432575,-19.33144,-21.964641)"
       inkscape:original-d="m 79.053969,146.70845 c 0.276617,0.21474 0.564153,0.45132 0.851686,0.6879 0.287536,0.23658 1.033672,1.13194 0.775256,0.85168 0.258416,0.26934 0.291174,0.34577 0.436761,0.52412"
       inkscape:path-effect="#path-effect16" /><path
       style="opacity:1;fill:none;stroke:#000000;stroke-width:0.264583"
       d="m 83.432466,147.91775 -0.633115,-1.1813 c 0.233909,0.38624 0.44542,0.78605 0.633115,1.19674 0.153404,0.33566 0.290813,0.67835 0.432375,1.01917 0.180701,0.43506 0.36911,0.86983 0.478697,1.328 0.123192,0.51504 0.143615,1.05764 0.03088,1.57507 -0.123075,0.56489 -0.405409,1.09355 -0.802976,1.5133 -0.284624,0.3005 -0.627402,0.54572 -1.003721,0.71805 l -0.648559,0.25479 -0.339723,0.12354"
       id="path16"
       sodipodi:nodetypes="ccsssssccc"
       transform="matrix(1.5432575,0,0,1.5432575,-19.33144,-21.964641)"
       inkscape:original-d="m 83.432466,147.91775 -0.633115,-1.1813 c 0.231627,0.36031 0.864745,1.55705 0.633115,1.19674 -0.231626,-0.36031 0.288248,0.68974 0.432375,1.01917 0.144123,0.32942 0.319129,0.88533 0.478697,1.328 0.159565,0.44266 0.01029,1.06034 0.03088,1.57507 0.02058,0.51473 -0.535318,1.00887 -0.802976,1.5133 -0.26766,0.50444 -1.353739,0.93423 -1.003721,0.71805 -0.334574,0.20074 -0.864745,0.37318 -0.648559,0.25479 -0.23163,0.11839 -0.23163,0.0824 -0.339723,0.12354"
       inkscape:path-effect="#path-effect17" /><path
       style="fill:none;stroke:#000000;stroke-width:0.264583"
       d="m 101.55268,147.78943 c -0.81514,-0.41189 -1.692648,-0.70008 -2.593271,-0.85169 -0.608906,-0.1025 -1.228264,-0.14281 -1.84532,-0.1201 l -0.551411,-0.0546"
       id="path20"
       sodipodi:nodetypes="cscc"
       transform="matrix(1.5432575,0,0,1.5432575,-19.33144,-21.964641)"
       inkscape:original-d="m 101.55268,147.78943 c -0.76069,-0.23294 -1.832575,-0.59691 -2.593271,-0.85169 -0.760692,-0.25477 -2.456785,-0.16014 -1.84532,-0.1201 -0.600546,-0.04 -0.380347,-0.0546 -0.551411,-0.0546"
       inkscape:path-effect="#path-effect21" /><path
       style="fill:none;stroke:#000000;stroke-width:0.264583"
       d="m 84.360633,151.40364 c 0.830601,0.56048 1.758592,0.97622 2.729764,1.22293 0.518949,0.13183 1.048763,0.21555 1.572342,0.32758 0.587104,0.12563 1.171664,0.28894 1.703374,0.56779 0.363347,0.19055 0.69698,0.4324 1.02639,0.67698 0.544409,0.40422 1.082585,0.81951 1.572345,1.28845 0.346586,0.33185 0.668094,0.68989 0.960877,1.07006"
       id="path21"
       transform="matrix(1.5432575,0,0,1.5432575,-19.33144,-21.964641)"
       inkscape:original-d="m 84.360633,151.40364 c 0.90992,0.39308 1.819841,0.80801 2.729764,1.22293 0.909921,0.41493 1.062786,0.22566 1.572342,0.32758 0.509556,0.10191 1.121024,0.37124 1.703374,0.56779 0.582348,0.19654 0.68426,0.45132 1.02639,0.67698 0.342131,0.22566 1.055511,0.87352 1.572345,1.28845 0.516835,0.41492 0.633307,0.69882 0.960877,1.07006"
       inkscape:path-effect="#path-effect22" /><path
       style="fill:none;stroke:#000000;stroke-width:0.264583"
       d="m 85.486236,152.93636 -1.096372,-0.8493 1.096372,0.86474 2.2854,1.79126 2.331722,1.83758 c 1.231077,1.4014 2.445947,2.81703 3.644284,4.24652 0.687138,0.81968 1.36884,1.64392 2.045046,2.47265"
       id="path22"
       sodipodi:nodetypes="cccccsc"
       transform="matrix(1.5432575,0,0,1.5432575,-19.33144,-21.964641)"
       inkscape:original-d="m 85.486236,152.93636 -1.096372,-0.8493 c 0.365458,0.2831 1.461831,1.14784 1.096372,0.86474 0.365459,0.26766 3.04205,2.38835 2.2854,1.79126 0.741209,0.58164 3.114111,2.46041 2.331722,1.83758 0.782389,0.63827 2.429523,2.83616 3.644284,4.24652 1.21476,1.41036 1.432517,1.67482 2.045046,2.47265"
       inkscape:path-effect="#path-effect23" /><path
       style="fill:none;stroke:#000000;stroke-width:0.264583"
       d="m 83.596296,153.30356 c 0.198409,0.39257 0.409662,0.77866 0.633307,1.15742 0.432173,0.73193 0.915494,1.44229 1.528667,2.03094 0.745259,0.71545 1.659456,1.22997 2.445869,1.89992 0.713325,0.60769 1.314958,1.33836 1.834402,2.11829 0.90587,1.36015 1.565193,2.86813 2.161974,4.38946 0.165729,0.42248 0.327429,0.84799 0.43676,1.28845 0.05324,0.21449 0.09387,0.43993 0.04368,0.65515 -0.03369,0.14446 -0.108467,0.2791 -0.213298,0.38404 -0.104831,0.10495 -0.239387,0.17988 -0.383808,0.21373 -0.144422,0.0338 -0.298258,0.0265 -0.438803,-0.0209 -0.140546,-0.0474 -0.267362,-0.13482 -0.361731,-0.24927 l -1.135581,-1.61602"
       id="path23"
       transform="matrix(1.5432575,0,0,1.5432575,-19.33144,-21.964641)"
       inkscape:original-d="m 83.596296,153.30356 c 0.196543,0.37124 0.414925,0.76433 0.633307,1.15742 0.218382,0.39308 1.019112,1.35396 1.528667,2.03094 0.509556,0.67698 1.63058,1.26661 2.445869,1.89992 0.81529,0.6333 1.222934,1.41219 1.834402,2.11829 0.611468,0.7061 1.441315,2.92631 2.161974,4.38946 0.720656,1.46316 0.291173,0.85897 0.43676,1.28845 0.14559,0.42949 0.02912,0.43676 0.04368,0.65515 0.01455,0.21838 -1.85624,0.43676 -1.39764,0.32757 -0.436761,0.10919 -0.749774,-1.07735 -1.135581,-1.61602"
       inkscape:path-effect="#path-effect24" /><path
       style="fill:none;stroke:#000000;stroke-width:0.264583"
       d="m 84.248338,149.8858 c 0.502334,-0.57871 1.012994,-1.15019 1.531771,-1.7142 0.317273,-0.34494 0.637582,-0.68709 0.960877,-1.02639 0.541183,-0.52954 1.094613,-1.04656 1.659697,-1.55051 0.231006,-0.20602 0.46396,-0.40985 0.69882,-0.61146 0.178566,-0.1084 0.369448,-0.1965 0.56779,-0.26206 0.385266,-0.12734 0.795636,-0.16857 1.201097,-0.15287 0.196187,0.008 0.399091,0.0306 0.567791,0.13103 0.122374,0.0729 0.22018,0.18385 0.285569,0.31037 0.06539,0.12652 0.09916,0.26812 0.107517,0.41029 0.01842,0.31339 -0.0856,0.62547 -0.250362,0.89268 -0.164759,0.26722 -0.387867,0.49369 -0.623162,0.7015 -0.491319,0.43394 -1.042668,0.796 -1.616023,1.11374 -0.846117,0.4689 -1.740715,0.84274 -2.620573,1.24477 -0.771582,0.35256 -1.53299,0.72738 -2.282957,1.12385"
       id="path11"
       sodipodi:nodetypes="cscsccccssssc"
       transform="matrix(1.5432575,0,0,1.5432575,-19.33144,-21.964641)"
       inkscape:original-d="m 84.248338,149.8858 c 0.393086,-0.48044 1.116846,-1.2556 1.531771,-1.7142 0.414925,-0.4586 1.288449,-1.36852 0.960877,-1.02639 0.349411,-0.34213 1.099185,-1.02639 1.659697,-1.55051 0.560511,-0.52411 0.46588,-0.40764 0.69882,-0.61146 -0.211103,0.20382 0.385807,-0.17471 0.56779,-0.26206 0.181983,-0.0874 0.808011,-0.0946 1.201097,-0.15287 0.393087,-0.0582 0.371248,0.0801 0.567791,0.13103 0.196543,0.051 0.262056,0.48044 0.393086,0.72066 0.131027,0.24022 -1.150141,2.11829 -0.873524,1.59418 0.276616,-0.52412 -1.070068,0.73522 -1.616023,1.11374 -0.545951,0.37853 -3.494098,1.65242 -2.620573,1.24477 0.873524,-0.40764 -1.521971,0.74924 -2.282957,1.12385"
       inkscape:path-effect="#path-effect18" /><path
       style="fill:none;stroke:#000000;stroke-width:0.264583"
       d="m 84.469821,151.18526 c 0.873509,0.044 1.747034,0.0877 2.620576,0.13103 0.451055,0.0224 0.902354,0.0447 1.353963,0.0437 1.000169,-0.002 2.019309,-0.1244 2.926305,-0.54595 0.788406,-0.36643 1.457604,-0.94173 2.118299,-1.50683 0.816679,-0.69851 1.637279,-1.39251 2.467705,-2.07462 0.778493,-0.63945 1.569848,-1.27136 2.445869,-1.76889 0.838526,-0.47624 1.748072,-0.82452 2.686092,-1.04823 0.61559,-0.14681 1.26384,-0.23969 1.87807,-0.0873 0.3602,0.0894 0.6993,0.26268 0.98272,0.50228"
       id="path18"
       sodipodi:nodetypes="cccssssscc"
       transform="matrix(1.5432575,0,0,1.5432575,-19.33144,-21.964641)"
       inkscape:original-d="m 84.469821,151.18526 c 0.735219,0.007 1.885357,0.0801 2.620576,0.13103 0.735216,0.051 0.909921,0.0218 1.353963,0.0437 0.44404,0.0218 1.950871,-0.37124 2.926305,-0.54595 0.975437,-0.17471 1.39764,-0.99727 2.118299,-1.50683 0.720656,-0.50956 1.652415,-1.39036 2.467705,-2.07462 0.81529,-0.68426 1.637858,-1.17198 2.445869,-1.76889 0.808011,-0.59691 1.790722,-0.69882 2.686092,-1.04823 0.89536,-0.34941 1.25205,-0.051 1.87807,-0.0873 0.62603,-0.0364 0.64059,0.32757 0.98272,0.50228"
       inkscape:path-effect="#path-effect19" /><path
       style="fill:none;stroke:#000000;stroke-width:0.264583"
       d="m 104.12412,151.09791 c -0.35154,0.2164 -0.74846,0.35869 -1.15742,0.41492 -0.80709,0.11097 -1.63062,-0.11453 -2.35851,-0.48044 -0.649686,-0.3266 -1.240518,-0.76356 -1.899918,-1.07007 -1.170652,-0.54416 -2.490418,-0.64928 -3.777993,-0.74249 -0.407618,-0.0295 -0.815264,-0.0586 -1.222936,-0.0874"
       id="path19"
       transform="matrix(1.5432575,0,0,1.5432575,-19.33144,-21.964641)"
       inkscape:original-d="m 104.12412,151.09791 c -0.37852,0.11647 -0.77889,0.25477 -1.15742,0.41492 -0.37852,0.16015 -1.56506,-0.31301 -2.35851,-0.48044 -0.793454,-0.16743 -1.281171,-0.71338 -1.899918,-1.07007 -0.618746,-0.35668 -2.518661,-0.49499 -3.777993,-0.74249 -1.259332,-0.2475 -0.81529,-0.0582 -1.222936,-0.0874"
       inkscape:path-effect="#path-effect20" /></g></svg>
