<?xml version="1.0" encoding="UTF-8" standalone="no"?>
<!-- Created with Inkscape (http://www.inkscape.org/) -->

<svg
   width="210mm"
   height="297mm"
   viewBox="0 0 210 297"
   version="1.1"
   id="svg1"
   xml:space="preserve"
   inkscape:version="1.4 (e7c3feb100, 2024-10-09)"
   sodipodi:docname="name-Y.svg"
   xmlns:inkscape="http://www.inkscape.org/namespaces/inkscape"
   xmlns:sodipodi="http://sodipodi.sourceforge.net/DTD/sodipodi-0.dtd"
   xmlns:xlink="http://www.w3.org/1999/xlink"
   xmlns="http://www.w3.org/2000/svg"
   xmlns:svg="http://www.w3.org/2000/svg"><sodipodi:namedview
     id="namedview1"
     pagecolor="#ffffff"
     bordercolor="#999999"
     borderopacity="1"
     inkscape:showpageshadow="2"
     inkscape:pageopacity="0"
     inkscape:pagecheckerboard="0"
     inkscape:deskcolor="#d1d1d1"
     inkscape:document-units="mm"
     inkscape:zoom="1.4253648"
     inkscape:cx="412.87677"
     inkscape:cy="408.66732"
     inkscape:window-width="1920"
     inkscape:window-height="1134"
     inkscape:window-x="0"
     inkscape:window-y="29"
     inkscape:window-maximized="1"
     inkscape:current-layer="svg1" /><defs
     id="defs1"><linearGradient
       id="linearGradient4"
       inkscape:collect="always"><stop
         style="stop-color:#ffca00;stop-opacity:1;"
         offset="0.64437973"
         id="stop4" /><stop
         style="stop-color:#fbc58f;stop-opacity:0;"
         offset="1"
         id="stop5" /></linearGradient><inkscape:path-effect
       effect="spiro"
       id="path-effect2"
       is_visible="true"
       lpeversion="1" /><radialGradient
       inkscape:collect="always"
       xlink:href="#linearGradient4"
       id="radialGradient5"
       cx="64.15522"
       cy="84.088135"
       fx="64.15522"
       fy="84.088135"
       r="4.5736508"
       gradientTransform="matrix(1.1874325,0,0,1.181778,-11.244291,-16.005608)"
       gradientUnits="userSpaceOnUse" /><radialGradient
       inkscape:collect="always"
       xlink:href="#linearGradient4"
       id="radialGradient5-2"
       cx="64.15522"
       cy="84.088135"
       fx="64.15522"
       fy="84.088135"
       r="4.5736508"
       gradientTransform="matrix(1.1874325,0,0,1.181778,-11.244291,-16.005608)"
       gradientUnits="userSpaceOnUse" /><radialGradient
       inkscape:collect="always"
       xlink:href="#linearGradient4"
       id="radialGradient1"
       cx="64.15522"
       cy="84.088135"
       fx="64.15522"
       fy="84.088135"
       r="4.5736508"
       gradientTransform="matrix(1.1874325,0,0,1.181778,-11.244291,-16.005608)"
       gradientUnits="userSpaceOnUse" /></defs><path
     style="display:inline;opacity:1;fill:#577f6d;stroke:#000000;stroke-width:0.132292"
     d="m 138.66187,90.863437 c -0.61738,3.357513 -1.23018,6.715868 -1.83839,10.075053 -0.87756,4.84681 -1.74676,9.70419 -2.15254,14.61307 -0.3286,3.97517 -0.35662,8.00429 -1.29938,11.88 -0.87431,3.59434 -2.51211,6.95427 -4.26937,10.20938 -1.33016,2.46397 -2.74481,4.90733 -3.61425,7.56901 -0.91347,2.79649 -1.20095,5.76283 -2.04731,8.58036 -0.92166,3.06819 -2.48545,5.89653 -3.99094,8.72438 -1.99834,3.7536 -3.92945,7.59513 -4.92822,11.72857 -0.59667,2.46935 -0.85213,5.01109 -1.44383,7.48164 -0.886,3.69935 -2.50798,7.17234 -3.9377,10.69741 -0.98358,2.42508 -1.87944,4.88474 -2.75639,7.35038 -0.85567,2.40579 -1.69433,4.82033 -2.36262,7.28475 -0.22924,0.84536 -0.43847,1.69693 -0.59065,2.5595 -0.63323,3.58922 -0.26601,7.27138 0.13125,10.89431 0.3984,3.63337 0.82538,7.26354 1.24694,10.8943 0.47506,4.09157 0.94326,8.18397 1.44382,12.2725 0.66476,5.42975 1.38783,10.87118 1.3782,16.34146 -6.9e-4,0.39377 -0.005,0.78757 0,1.18131 0.009,0.67847 0.0466,1.35622 0.0656,2.03448 0.0251,0.89665 0.0176,1.79393 0,2.69076 -0.0197,1.0072 -0.0519,2.01838 0.0656,3.0189 0.0607,0.51703 0.16128,1.02961 0.19628,1.54902 0.035,0.5194 0.001,1.05397 -0.19628,1.53552 -0.13292,0.32366 -0.34058,0.61901 -0.61349,0.83796 -0.27292,0.21895 -0.61213,0.35896 -0.96159,0.37616 -0.2957,0.0146 -0.59149,-0.0579 -0.86141,-0.17948 -0.26991,-0.12163 -0.5157,-0.29135 -0.74649,-0.47679 -0.57805,-0.46446 -1.07907,-1.0471 -1.34538,-1.73916 -0.21404,-0.55623 -0.26929,-1.16148 -0.26603,-1.75746 0.003,-0.59599 0.0628,-1.19052 0.0692,-1.78648 0.0226,-2.12253 -0.62869,-4.21082 -0.59066,-6.33313 0.0102,-0.56806 0.0698,-1.13523 0.0552,-1.70319 -0.0147,-0.56797 -0.10828,-1.1467 -0.38331,-1.64385 -0.23476,-0.42436 -0.58872,-0.76777 -0.92972,-1.11261 -0.34099,-0.34484 -0.68058,-0.70731 -0.87506,-1.15157 -0.26717,-0.61032 -0.23209,-1.3061 -0.16407,-1.96885 0.12939,-1.26069 0.36019,-2.51021 0.4594,-3.77363 0.25419,-3.23708 -0.35919,-6.47203 -0.55784,-9.71299 -0.07233,-1.17996 -0.08964,-2.3625 -0.131261,-3.54394 -0.07041,-1.99843 -0.210757,-3.99736 -0.525026,-5.97218 -0.122089,-0.76719 -0.270307,-1.53002 -0.393771,-2.29699 -0.523558,-3.25239 -0.599055,-6.55743 -0.820354,-9.84425 -0.319726,-4.7487 -0.949487,-9.4937 -2.231364,-14.07728 -0.311266,-1.11299 -0.660537,-2.21496 -1.017238,-3.31423 -0.901052,-2.77683 -1.849944,-5.53785 -2.789206,-8.30199 -0.266028,-0.78289 -0.531427,-1.56649 -0.754726,-2.36262 -1.453567,-5.18242 -1.080186,-10.7087 -2.165736,-15.9805 -0.63487,-3.08314 -1.763321,-6.0506 -2.349239,-9.14342 -0.510191,-2.69309 -0.602483,-5.44592 -0.928123,-8.1675 -0.282825,-2.36374 -0.741529,-4.70243 -1.113751,-7.05375 -0.177014,-1.1182 -0.334876,-2.24141 -0.603281,-3.34125 -0.508613,-2.08415 -1.40929,-4.06445 -1.809846,-6.17203 -0.218241,-1.14831 -0.284913,-2.31917 -0.417655,-3.48047 -0.427876,-3.74329 -1.539191,-7.36902 -2.366719,-11.04469 -0.410548,-1.82355 -0.751887,-3.66288 -1.206561,-5.47593 -0.838465,-3.34345 -2.058551,-6.58258 -2.877188,-9.93094 -0.508092,-2.07818 -0.860079,-4.19268 -1.392187,-6.26484 -0.975011,-3.79693 -2.543425,-7.410808 -3.828518,-11.114304 -0.103504,-0.298288 -0.205347,-0.597761 -0.278437,-0.90492 -0.06519,-0.273944 -0.107324,-0.553854 -0.116014,-0.835313 -0.0019,-0.06018 -0.0022,-0.12073 0.007,-0.180235 0.0092,-0.0595 0.02832,-0.118287 0.06257,-0.167811 0.03812,-0.05512 0.09397,-0.09688 0.155785,-0.122757 0.06182,-0.02587 0.129432,-0.03635 0.196445,-0.03573 0.134026,0.0012 0.263438,0.04554 0.39027,0.08888 0.254592,0.08699 0.509835,0.17207 0.765702,0.255233 0.104789,0.128167 0.205407,0.259744 0.30164,0.394454 0.344964,0.482889 0.632378,1.004242 0.904923,1.531406 0.381398,0.737712 0.735358,1.489477 1.067345,2.250705 1.325757,3.039886 2.297098,6.220235 3.248435,9.397265 1.83568,6.13033 3.609222,12.28305 5.058283,18.51609 1.307861,5.62568 2.350895,11.31458 3.85172,16.89188 0.737225,2.73964 1.584474,5.45063 2.227497,8.2139 1.123141,4.82649 1.61597,9.78066 2.691564,14.61797 0.841424,3.78416 2.035658,7.47984 3.016406,11.23031 0.855431,3.27125 1.548639,6.58586 2.041875,9.93094 0.274899,1.86433 0.487644,3.73765 0.649687,5.61516 0.145286,1.68335 0.253915,3.39126 0.788249,4.99415 0.07111,0.21331 0.149617,0.42424 0.213291,0.63988 0.04622,0.15654 0.08457,0.31541 0.114851,0.4758 0.03005,0.16903 0.07971,0.33456 0.147663,0.49222 0.05433,0.12604 0.12033,0.24704 0.196885,0.36095 l 0.360955,0.0164 c 0.160702,-0.0206 0.313698,-0.0971 0.426585,-0.21329 0.09572,-0.0985 0.161716,-0.22298 0.206275,-0.35292 0.04456,-0.12995 0.06864,-0.26595 0.08905,-0.4018 0.118279,-0.78712 0.118279,-1.59191 0,-2.37903 v -2.18214 c 0,-0.58429 0.01958,-1.16847 0.0164,-1.75275 -0.0112,-2.05893 -0.466041,-4.09134 -0.564745,-6.14794 -0.08389,-1.748 0.09007,-3.49651 0.185626,-5.24391 0.294029,-5.37667 -0.154199,-10.7754 0.185624,-16.14937 0.110596,-1.74897 0.304548,-3.49272 0.37125,-5.24391 0.192728,-5.0599 -0.678396,-10.11405 -0.510468,-15.17484 0.03082,-0.92879 0.09662,-1.85605 0.139218,-2.78438 0.112771,-2.45732 0.06292,-4.91886 0.09281,-7.37859 0.05866,-4.82749 0.424512,-9.65474 0.232032,-14.47875 -0.190554,-4.77572 -0.927316,-9.51725 -1.11375,-14.29313 -0.156332,-4.004753 0.075,-8.012939 0.185623,-12.019215 0.09991,-3.618044 0.0982,-7.271343 -0.649687,-10.812656 -0.391773,-1.855088 -0.984555,-3.660506 -1.531405,-5.475938 -0.150165,-0.498518 -0.297439,-1.000344 -0.368704,-1.516088 -0.07126,-0.515743 -0.06422,-1.049531 0.09027,-1.546726 0.03053,-0.09826 0.06696,-0.195306 0.118927,-0.284109 0.05197,-0.0888 0.120191,-0.169455 0.205915,-0.22636 0.112526,-0.0747 0.249538,-0.104929 0.384442,-0.111469 0.134904,-0.0065 0.269744,0.0091 0.404466,0.01866 0.54645,0.03882 1.115902,-0.01865 1.624219,0.185623 0.490271,0.197024 0.862692,0.620313 1.102208,1.091287 0.239515,0.470974 0.361039,0.991655 0.475599,1.507464 0.51657,2.325772 0.93532,4.677992 1.11375,7.053749 0.21787,2.900958 0.0762,5.815296 0.0928,8.724376 0.0135,2.369723 0.13216,4.738241 0.32485,7.100155 0.29786,3.65094 0.77279,7.290428 0.88171,10.951878 0.0856,2.87678 -0.0552,5.75473 -0.13921,8.63156 -0.0984,3.37108 -0.11892,6.74414 -0.0928,10.11656 0.0387,4.99657 0.17971,9.99266 0.13921,14.98922 -0.0384,4.73418 -0.2396,9.47205 0,14.20031 0.23763,4.68931 0.90857,9.37292 0.64969,14.0611 -0.0625,1.13136 -0.179,2.25893 -0.27844,3.38765 -0.19854,2.25355 -0.32906,4.51343 -0.37125,6.77532 -0.0423,2.26683 0.004,4.53531 0.13922,6.79851 -0.32088,1.81204 -0.38358,3.66959 -0.18562,5.49914 0.0994,0.91878 0.26435,1.84266 0.16242,2.76117 -0.025,0.22505 -0.0659,0.44807 -0.0928,0.6729 -0.0479,0.4 -0.0514,0.80468 -0.0232,1.20656 0.033,0.47005 0.10919,0.93728 0.23203,1.39219 0.0129,0.0478 0.0264,0.0957 0.0478,0.14031 0.0214,0.0446 0.0511,0.0862 0.0914,0.11492 0.0409,0.0291 0.0912,0.0437 0.14135,0.0446 0.0502,8.4e-4 0.10007,-0.0117 0.14549,-0.033 0.0908,-0.0426 0.16192,-0.11807 0.22363,-0.19717 0.2993,-0.38359 0.42093,-0.8725 0.53367,-1.34579 0.21779,-0.91427 0.43039,-1.82995 0.67289,-2.73797 0.47161,-1.7659 1.05536,-3.49946 1.60102,-5.2439 0.31475,-1.00623 0.61696,-2.01652 0.95133,-3.01641 1.21467,-3.63229 2.85317,-7.1261 3.80531,-10.83586 0.77534,-3.02091 1.09517,-6.1811 2.32031,-9.04922 0.74302,-1.73944 1.7997,-3.32309 2.73797,-4.96547 1.81218,-3.17211 3.18968,-6.58008 4.26937,-10.07015 0.59733,-1.93085 1.10516,-3.88985 1.76344,-5.80078 1.42276,-4.13017 3.53191,-7.99022 5.10469,-12.06563 1.29277,-3.34985 2.21987,-6.84193 2.73797,-10.395 1.01772,-6.97942 0.48606,-14.28144 2.97,-20.88281 0.76412,-2.030732 1.80064,-3.951045 2.55234,-5.986407 0.32269,-0.873752 0.59391,-1.770969 1.02094,-2.598748 0.20954,-0.40619 0.45895,-0.797479 0.78891,-1.11375 0.395,-0.378619 0.90115,-0.639858 1.43859,-0.7425 z"
     id="path2"
     inkscape:original-d="m 138.66187,90.863437 c 0.47953,-0.247501 -0.9412,5.06318 -1.83839,10.075053 -0.89719,5.01188 -1.71942,11.39557 -2.15254,14.61307 -0.43313,3.2175 -0.89719,7.95094 -1.29938,11.88 -0.40219,3.92906 -2.81531,6.74438 -4.26937,10.20938 -1.45407,3.465 -2.46956,4.97026 -3.61425,7.56901 -1.14468,2.59875 -1.42675,5.78212 -2.04731,8.58036 -0.62057,2.79825 -2.59876,5.75438 -3.99094,8.72438 -1.39219,2.97 -3.28548,7.8628 -4.92822,11.72857 -1.64274,3.86578 -0.96255,4.944 -1.44383,7.48164 -0.48127,2.53762 -2.66888,7.17536 -3.9377,10.69741 -1.26881,3.52206 -1.79384,4.90025 -2.75639,7.35038 -0.96255,2.45012 -1.57508,4.81275 -2.36262,7.28475 -0.78754,2.472 -0.41565,1.66258 -0.59065,2.5595 -0.17501,0.89692 0.0875,7.28475 0.13125,10.89431 0.0437,3.60956 0.87505,7.24099 1.24694,10.8943 0.37189,3.65332 0.96255,8.18167 1.44382,12.2725 0.48128,4.09084 0.9188,10.91619 1.3782,16.34146 0.4594,5.42528 0,0.76567 0,1.18131 0,0.41565 0.0438,1.40007 0.0656,2.03448 0.0219,0.63441 0,1.75009 0,2.69076 0,0.94068 0.0438,2.03449 0.0656,3.0189 0.0219,0.98443 0,2.05637 0,3.08454 0,1.02817 -1.06099,0.79848 -1.57508,1.21412 -0.51409,0.41566 -1.061,-0.43752 -1.6079,-0.65627 -0.5469,-0.21876 -0.89692,-1.14851 -1.34538,-1.73916 -0.44846,-0.59066 -0.13126,-2.38451 -0.19688,-3.54394 -0.0656,-1.15943 -0.39378,-4.20021 -0.59066,-6.33313 -0.19688,-2.13292 -0.2297,-2.25323 -0.32814,-3.34704 -0.0984,-1.09381 -1.18131,-1.48758 -1.80478,-2.26418 -0.623469,-0.7766 -0.10938,-1.3235 -0.16407,-1.96885 -0.0547,-0.64534 0.30626,-2.51575 0.4594,-3.77363 0.15313,-1.25788 -0.3719,-6.49721 -0.55784,-9.71299 -0.18595,-3.2158 -0.109385,-2.31887 -0.131261,-3.54394 -0.02188,-1.22506 -0.328142,-4.0252 -0.525026,-5.97218 -0.196884,-1.94697 -0.262514,-1.50945 -0.393771,-2.29699 -0.131257,-0.78754 -0.546902,-6.56283 -0.820354,-9.84425 -0.273452,-3.28142 -1.487575,-9.39579 -2.231364,-14.07728 -0.743788,-4.68149 -0.678159,-2.19855 -1.017238,-3.31423 -0.339082,-1.11568 -1.85947,-5.53466 -2.789206,-8.30199 -0.929735,-2.76733 -0.50315,-1.57508 -0.754726,-2.36262 -0.251574,-0.78754 -1.443824,-10.65367 -2.165736,-15.9805 -0.721911,-5.32684 -1.566159,-6.09561 -2.349239,-9.14342 -0.783079,-3.04781 -0.618749,-5.46047 -0.928123,-8.1675 -0.309378,-2.70703 -0.742501,-4.71797 -1.113751,-7.05375 -0.37125,-2.33578 -0.402188,-2.19656 -0.603281,-3.34125 -0.201094,-1.14469 -1.206564,-4.11469 -1.809846,-6.17203 -0.603279,-2.05734 -0.278437,-2.32031 -0.417655,-3.48047 -0.139219,-1.16016 -1.577814,-7.36313 -2.366719,-11.04469 -0.788906,-3.68156 -0.804376,-3.65062 -1.206561,-5.47593 -0.402188,-1.82532 -1.918126,-6.65157 -2.877188,-9.93094 -0.959064,-3.27938 -0.912656,-4.17657 -1.392187,-6.26484 -0.479533,-2.08829 -2.560079,-7.370865 -3.828518,-11.114304 -1.268436,-3.743436 -0.193357,-0.626483 -0.278437,-0.90492 -0.08508,-0.278437 -0.06961,-0.54914 -0.116014,-0.835313 -0.04641,-0.286171 0.03867,-0.224298 0.06961,-0.348046 0.03094,-0.123751 0.495001,-0.04641 0.7425,-0.06961 0.247499,-0.0232 1.020937,0.332579 0.765702,0.255233 0.255235,0.05414 0.201093,0.255236 0.30164,0.394454 0.100547,0.139219 0.603282,1.020938 0.904923,1.531406 0.301641,0.510469 0.719296,1.508204 1.067345,2.250705 0.348046,0.7425 2.19656,6.264845 3.248435,9.397265 1.051878,3.13242 3.356721,12.34406 5.058283,18.51609 1.701562,6.17203 2.567813,11.24578 3.85172,16.89188 1.283903,5.64609 1.484997,5.47593 2.227497,8.2139 0.742501,2.73797 1.763438,9.76078 2.691564,14.61797 0.928124,4.85719 2.026407,7.44047 3.016406,11.23031 0.99,3.78985 1.376717,6.65157 2.041875,9.93094 0.665157,3.27938 0.448593,3.77438 0.649687,5.61516 0.201094,1.84078 0.525499,3.32943 0.788249,4.99415 0.26275,1.66472 0.142195,0.42658 0.213291,0.63988 0.0711,0.21329 0.147664,0.62894 0.114851,0.4758 0.0164,0.13673 0.09297,0.32268 0.147663,0.49222 0.05469,0.16953 0.257046,0.48127 0.196885,0.36095 0.04375,0.12032 0.481274,0.0273 0.360955,0.0164 0.103912,0.0273 0.278921,-0.13672 0.426585,-0.21329 0.147664,-0.0766 0.196884,-0.50315 0.295328,-0.75472 0.09844,-0.25158 0,-3.16657 0,-2.37903 v -2.18214 c 0,-0.73285 0.01093,-1.18397 0.0164,-1.75275 0.0055,-0.56877 -0.345559,-4.1141 -0.564745,-6.14794 -0.219186,-2.03385 0.09281,-3.49594 0.185626,-5.24391 0.09281,-1.74797 0.123749,-10.78172 0.185624,-16.14937 0.06188,-5.36766 0.247499,-3.48047 0.37125,-5.24391 0.123751,-1.76344 -0.340312,-10.11656 -0.510468,-15.17484 -0.170157,-5.05828 0.09281,-1.84078 0.139218,-2.78438 0.04641,-0.94359 0.06188,-4.93453 0.09281,-7.37859 0.03094,-2.44406 0.154686,-9.66797 0.232032,-14.47875 0.07734,-4.81078 -0.727033,-9.54422 -1.11375,-14.29313 -0.386721,-4.748905 0.10828,-7.981872 0.185623,-12.019215 0.07735,-4.037344 -0.433123,-7.223906 -0.649687,-10.812656 -0.216561,-3.58875 -1.020937,-3.681563 -1.531405,-5.475938 -0.510469,-1.794375 -0.170157,-2.041874 -0.278437,-3.062814 -0.108281,-1.020937 0.232031,-0.309375 0.324842,-0.510469 0.09281,-0.201094 0.510468,-0.0464 0.788908,-0.09281 0.278437,-0.04641 1.067342,0.10828 1.624219,0.185623 0.556874,0.07734 1.051875,1.7325 1.577807,2.598751 0.52594,0.866249 0.7425,4.702501 1.11375,7.053749 0.37125,2.351252 0.0928,5.847189 0.0928,8.724376 0,2.877188 0.18563,4.702501 0.32485,7.100155 0.13921,2.397657 0.57234,7.270318 0.88171,10.951878 0.30938,3.68156 -0.10828,5.81625 -0.13921,8.63156 -0.0309,2.81531 -0.0309,6.6825 -0.0928,10.11656 -0.0619,3.43407 0.0928,10.02375 0.13921,14.98922 0.0464,4.96547 0,9.46688 0,14.20031 0,4.73344 0.43313,9.37407 0.64969,14.0611 0.21656,4.68703 -0.18563,2.25843 -0.27844,3.38765 -0.0928,1.12922 -0.26297,4.53235 -0.37125,6.77532 -0.10828,2.24296 0.17016,9.08789 0.13922,6.79851 0.0309,2.31258 -0.12375,3.6893 -0.18562,5.49914 -0.0619,1.80985 0.10828,1.84078 0.16242,2.76117 0.0541,0.92039 -0.0619,0.4486 -0.0928,0.6729 -0.0309,0.22429 -0.0155,0.7889 -0.0232,1.20656 -0.008,0.41765 0.17016,0.94359 0.23203,1.39219 0.0619,0.44859 0.0851,0.14695 0.13922,0.25523 0.0541,0.10828 0.33258,-0.11602 0.51047,-0.18562 0.17789,-0.0696 0.35578,-0.89719 0.53367,-1.34579 0.17789,-0.44859 0.46406,-1.84078 0.67289,-2.73797 0.20883,-0.89718 1.06735,-3.49593 1.60102,-5.2439 0.53367,-1.74797 0.61875,-1.99547 0.95133,-3.01641 0.33257,-1.02094 2.53687,-7.2239 3.80531,-10.83586 1.26843,-3.61195 1.54687,-6.03281 2.32031,-9.04922 0.77344,-3.0164 1.82531,-3.31031 2.73797,-4.96547 0.91265,-1.65515 2.86172,-6.7289 4.26937,-10.07015 1.40766,-3.34125 1.16016,-3.85172 1.76344,-5.80078 0.60328,-1.94907 3.43406,-8.07469 5.10469,-12.06563 1.67062,-3.99093 1.79437,-6.93 2.73797,-10.395 0.94359,-3.465 2.01093,-13.92187 2.97,-20.88281 0.95906,-6.960936 1.70156,-3.990938 2.55234,-5.986407 0.85078,-1.995469 0.6961,-1.747967 1.02094,-2.598748 0.32484,-0.850783 0.51047,-0.727032 0.78891,-1.11375 0.27843,-0.38672 0.95906,-0.495001 1.43859,-0.7425 z"
     inkscape:path-effect="#path-effect2" /><g
     id="g18"><path
       style="opacity:1;fill:#f8affe;fill-opacity:0.909804;stroke:#000000;stroke-width:0.0869389;stroke-opacity:1"
       d="m 65.848694,67.18608 a 5.2889466,7.4516397 9.6477558 0 0 -5.771741,6.512781 5.2889466,7.4516397 9.6477558 0 0 -0.138493,1.672249 7.4516397,5.2889466 37.274486 0 0 -0.820105,-0.694531 7.4516397,5.2889466 37.274486 0 0 -9.132776,-0.304374 7.4516397,5.2889466 37.274486 0 0 2.726449,8.721948 7.4516397,5.2889466 37.274486 0 0 4.317049,1.883089 5.2889466,7.4516397 41.985792 0 0 -3.535701,2.510958 5.2889466,7.4516397 41.985792 0 0 -1.053166,9.077482 5.2889466,7.4516397 41.985792 0 0 8.916252,-2.000911 5.2889466,7.4516397 41.985792 0 0 1.647961,-2.474785 7.4516397,5.2889466 63.647325 0 0 0.903304,2.727999 7.4516397,5.2889466 63.647325 0 0 8.047571,4.329452 7.4516397,5.2889466 63.647325 0 0 1.431437,-9.024773 7.4516397,5.2889466 63.647325 0 0 -2.277897,-3.013769 5.2889466,7.4516397 71.655142 0 0 3.98477,-0.481108 5.2889466,7.4516397 71.655142 0 0 5.408455,-7.365958 5.2889466,7.4516397 71.655142 0 0 -8.737968,-2.674773 5.2889466,7.4516397 71.655142 0 0 -1.768367,0.775664 5.2889466,7.4516397 9.6477558 0 0 0.509529,-1.891358 5.2889466,7.4516397 9.6477558 0 0 -3.965132,-8.232572 5.2889466,7.4516397 9.6477558 0 0 -0.691431,-0.05271 z"
       id="path5" /><ellipse
       style="opacity:1;fill:url(#radialGradient5);fill-opacity:1;stroke:none;stroke-width:0.147448"
       id="path3"
       cx="64.935707"
       cy="83.367889"
       rx="5.4309015"
       ry="5.4050398" /></g><use
     x="0"
     y="0"
     xlink:href="#g18"
     id="use18"
     transform="matrix(1.1111044,-0.34773589,0.34773589,1.1111044,-4.4176166,-8.7504006)" /><use
     x="0"
     y="0"
     xlink:href="#g18"
     id="use18-7"
     transform="matrix(1.066854,0.46614992,-0.46614992,1.066854,110.55744,-32.827443)" /></svg>
