<?xml version="1.0" encoding="UTF-8" standalone="no"?>
<!-- Created with Inkscape (http://www.inkscape.org/) -->

<svg
   width="210mm"
   height="297mm"
   viewBox="0 0 210 297"
   version="1.1"
   id="svg1"
   xml:space="preserve"
   inkscape:version="1.4 (e7c3feb100, 2024-10-09)"
   sodipodi:docname="name-L.svg"
   xmlns:inkscape="http://www.inkscape.org/namespaces/inkscape"
   xmlns:sodipodi="http://sodipodi.sourceforge.net/DTD/sodipodi-0.dtd"
   xmlns:xlink="http://www.w3.org/1999/xlink"
   xmlns="http://www.w3.org/2000/svg"
   xmlns:svg="http://www.w3.org/2000/svg"><sodipodi:namedview
     id="namedview1"
     pagecolor="#ffffff"
     bordercolor="#999999"
     borderopacity="1"
     inkscape:showpageshadow="2"
     inkscape:pageopacity="0"
     inkscape:pagecheckerboard="0"
     inkscape:deskcolor="#d1d1d1"
     inkscape:document-units="mm"
     inkscape:zoom="0.50394254"
     inkscape:cx="-565.54066"
     inkscape:cy="774.88993"
     inkscape:window-width="1920"
     inkscape:window-height="1134"
     inkscape:window-x="0"
     inkscape:window-y="29"
     inkscape:window-maximized="1"
     inkscape:current-layer="svg1" /><defs
     id="defs1"><linearGradient
       id="linearGradient3"
       inkscape:collect="always"><stop
         style="stop-color:#ffdeb0;stop-opacity:1;"
         offset="0.92014974"
         id="stop3" /><stop
         style="stop-color:#ffdeb0;stop-opacity:0;"
         offset="1"
         id="stop4" /></linearGradient><inkscape:path-effect
       effect="spiro"
       id="path-effect2"
       is_visible="true"
       lpeversion="1" /><inkscape:path-effect
       effect="spiro"
       id="path-effect1"
       is_visible="true"
       lpeversion="1" /><radialGradient
       inkscape:collect="always"
       xlink:href="#linearGradient3"
       id="radialGradient4"
       cx="21.289726"
       cy="114.82715"
       fx="21.289726"
       fy="114.82715"
       r="12.314141"
       gradientTransform="matrix(1,0,0,0.55908161,0,50.629402)"
       gradientUnits="userSpaceOnUse" /></defs><path
     style="opacity:1;fill:#7f955c;fill-opacity:1;stroke:#000000;stroke-width:0.079375;stroke-opacity:1"
     d="m 79.029842,100.46953 c 1.664721,4.81545 3.151078,9.69256 4.455001,14.61797 1.107173,4.18221 2.082602,8.3982 3.016406,12.6225 1.32997,6.01646 2.575895,12.05136 3.758907,18.09844 2.030001,10.37654 3.875469,20.7935 5.243906,31.27781 0.903725,6.92391 1.598998,13.87435 2.134688,20.83641 0.541476,7.03726 0.920574,14.0928 1.833046,21.09163 1.292684,9.91513 3.658904,19.80293 3.039684,29.78278 -0.12628,2.03521 -0.37683,4.06437 -0.39377,6.10343 -0.003,0.39376 0,0.78754 0,1.18131 v 2.36262 c 0,0.24597 0.003,0.49319 0.0444,0.73558 0.0418,0.24239 0.12285,0.47898 0.24895,0.69017 0.25219,0.42237 0.68215,0.72065 1.15047,0.87124 0.40488,0.13019 0.84304,0.16298 1.25947,0.0766 0.41644,-0.0864 0.80961,-0.29389 1.10315,-0.60164 0.3147,-0.32993 0.50613,-0.76163 0.615,-1.20439 0.10886,-0.44276 0.14038,-0.90031 0.17254,-1.35512 0.1762,-2.49163 0.38397,-4.9838 0.39377,-7.48163 0.007,-1.83905 -0.0929,-3.67666 -0.19688,-5.51278 -0.18951,-3.34747 -0.39177,-6.69421 -0.59066,-10.04114 -0.1563,-2.6302 -0.31079,-5.26331 -0.65628,-7.8754 -0.33882,-2.56168 -0.86111,-5.10145 -1.05005,-7.67852 -0.15045,-2.05205 -0.0884,-4.1134 0,-6.16906 0.44688,-10.39281 1.56673,-20.7638 3.54393,-30.97658 1.84576,-9.53387 4.4347,-18.91262 7.416,-28.15456 2.78311,-8.62755 5.92178,-17.18997 7.48163,-26.12009 0.86749,-4.96637 1.24334,-10.0309 2.55951,-14.89763 0.91527,-3.38435 2.27438,-6.63033 3.67519,-9.84425 1.80057,-4.131105 3.68919,-8.26555 4.65961,-12.666272 0.14759,-0.669318 0.27409,-1.349179 0.26251,-2.034479 -0.009,-0.525771 -0.0991,-1.050299 -0.0656,-1.57508 0.0111,-0.17417 0.0358,-0.348796 0.0191,-0.522524 -0.008,-0.08686 -0.0272,-0.17322 -0.0621,-0.253189 -0.0349,-0.07997 -0.0864,-0.153491 -0.15394,-0.208712 -0.0623,-0.05092 -0.13748,-0.08548 -0.21619,-0.102248 -0.0787,-0.01677 -0.16083,-0.01593 -0.23975,-2.18e-4 -0.15785,0.03143 -0.30013,0.121631 -0.41191,0.237422 -0.22357,0.231582 -0.32508,0.550642 -0.44472,0.849469 -0.45005,1.124146 -1.23059,2.077646 -1.90322,3.084531 -1.18162,1.768809 -2.04417,3.7298 -2.82202,5.709668 -0.75183,1.913647 -1.43029,3.855291 -2.16574,5.775292 -0.92147,2.40564 -1.93276,4.77825 -2.75639,7.21912 -0.72331,2.14358 -1.3006,4.33718 -1.70633,6.56283 -0.41228,2.26159 -0.64686,4.55141 -0.98443,6.82535 -0.66537,4.48209 -1.74164,8.93176 -3.60956,13.06004 -1.07384,2.37328 -2.406,4.63446 -3.28142,7.08787 -0.67471,1.89091 -1.06808,3.86872 -1.44382,5.84092 -0.70765,3.71432 -1.3623,7.44478 -2.36262,11.09119 -1.18334,4.31357 -2.84642,8.49445 -3.80644,12.86315 -0.91132,4.14706 -1.17658,8.40641 -1.8376,12.60065 -0.34575,2.19383 -0.79976,4.36947 -1.14849,6.56283 -0.0797,0.50123 -0.15393,1.00374 -0.19689,1.50945 -0.0112,0.13159 -0.0204,0.26442 -0.0564,0.39148 -0.036,0.12707 -0.10149,0.24984 -0.2061,0.33044 -0.0924,0.0712 -0.21168,0.10517 -0.32814,0.0984 -0.11434,-0.007 -0.22462,-0.0512 -0.3186,-0.11664 -0.094,-0.0655 -0.17244,-0.15128 -0.23924,-0.24432 -0.28217,-0.39304 -0.3524,-0.89612 -0.39378,-1.37819 -0.10203,-1.18864 -0.0803,-2.38388 -0.0984,-3.57675 -0.0622,-4.10827 -0.5965,-8.19264 -1.082865,-12.2725 -0.191034,-1.60248 -0.375114,-3.20788 -0.689096,-4.79087 -0.449621,-2.26683 -1.162676,-4.47308 -1.673524,-6.7269 -0.876861,-3.86865 -1.151269,-7.84383 -1.640708,-11.78029 -0.386453,-3.10817 -0.908478,-6.20059 -1.607897,-9.2536 -0.621552,-2.71311 -1.382381,-5.39199 -2.13292,-8.07229 -0.945831,-3.37772 -1.876087,-6.76067 -2.690762,-10.17239 -0.791947,-3.31654 -1.474242,-6.65849 -2.264177,-9.97551 -0.798336,-3.3523 -1.708292,-6.68406 -2.920463,-9.90988 -0.538426,-1.43286 -1.13932,-2.85479 -1.424601,-4.35865 -0.113024,-0.5958 -0.177716,-1.208371 -0.41064,-1.768285 -0.116462,-0.279957 -0.275566,-0.544854 -0.488679,-0.760544 -0.213113,-0.21569 -0.482335,-0.380619 -0.778348,-0.446311 -0.295453,-0.06557 -0.6095,-0.03002 -0.890788,0.08164 -0.281289,0.111663 -0.530381,0.297225 -0.733431,0.521641 -0.26697,0.295061 -0.456784,0.659334 -0.545668,1.047192 -0.08888,0.387857 -0.07664,0.798437 0.0352,1.180307 z"
     id="path1"
     inkscape:path-effect="#path-effect1"
     inkscape:original-d="m 79.029842,100.46953 c -0.170156,0.7425 2.939063,9.74531 4.455001,14.61797 1.515938,4.87266 2.026407,8.415 3.016406,12.6225 0.99,4.2075 2.490468,12.08109 3.758907,18.09844 1.268436,6.01734 3.495937,20.8364 5.243906,31.27781 1.747967,10.44141 1.454063,13.87547 2.134688,20.83641 0.680624,6.96093 1.183359,14.08429 1.833046,21.09163 0.649684,7.00735 2.070204,19.89894 3.039684,29.78278 0.96947,9.88383 -0.30627,4.06895 -0.39377,6.10343 -0.0875,2.03448 0,0.78754 0,1.18131 0,0.39377 0,1.55321 0,2.36262 0,0.80942 1.02818,1.55321 1.44382,2.29699 0.41565,0.74379 1.57508,-0.35001 2.36262,-0.52502 0.78754,-0.17501 0.52503,-1.70634 0.78754,-2.55951 0.26252,-0.85317 0.26252,-4.98775 0.39377,-7.48163 0.13126,-2.49388 -0.13125,-3.63143 -0.19688,-5.51278 -0.0656,-1.88135 -0.39377,-6.73784 -0.59066,-10.04114 -0.19688,-3.30329 -0.43752,-5.25027 -0.65628,-7.8754 -0.21876,-2.62513 -0.70004,-5.16276 -1.05005,-7.67852 -0.35002,-2.51575 0,-4.06895 0,-6.16906 0,-2.10011 2.36262,-20.62918 3.54393,-30.97658 1.18131,-10.3474 4.96588,-18.79158 7.416,-28.15456 2.45013,-9.36298 4.96588,-17.41339 7.48163,-26.12009 2.51575,-8.70669 1.70634,-9.93175 2.55951,-14.89763 0.85317,-4.96588 2.45012,-6.56283 3.67519,-9.84425 1.22506,-3.281419 3.12828,-8.422305 4.65961,-12.666272 1.53133,-4.243967 0.17501,-1.400071 0.26251,-2.034479 0.0875,-0.634407 -0.0875,-1.07193 -0.0656,-1.57508 0.0219,-0.50315 -0.10938,-0.612532 -0.19688,-0.984425 -0.0875,-0.371895 -0.87505,0.656283 -1.31257,0.984425 -0.43752,0.328141 -1.29069,2.07823 -1.90322,3.084531 -0.61253,1.006303 -1.85947,3.806446 -2.82202,5.709668 -0.96255,1.903222 -1.44382,3.82832 -2.16574,5.775292 -0.72191,1.94698 -1.83759,4.81275 -2.75639,7.21912 -0.91879,2.40637 -1.13755,4.3971 -1.70633,6.56283 -0.56878,2.16574 -0.65629,4.57211 -0.98443,6.82535 -0.32814,2.25324 -2.45013,8.66294 -3.60956,13.06004 -1.15943,4.3971 -2.14386,4.72525 -3.28142,7.08787 -1.13755,2.36262 -0.96255,3.89395 -1.44382,5.84092 -0.48127,1.94697 -1.57508,7.416 -2.36262,11.09119 -0.78754,3.67519 -2.55951,8.53168 -3.80644,12.86315 -1.24694,4.33148 -1.20319,8.42231 -1.8376,12.60065 -0.6344,4.17834 -0.76566,4.37522 -1.14849,6.56283 -0.38284,2.18762 -0.13126,1.01724 -0.19689,1.50945 -0.0656,0.49222 -0.19688,0.47034 -0.26251,0.72192 -0.0656,0.25157 -0.19689,0.0656 -0.32814,0.0984 -0.13126,0.0328 -0.3719,-0.26251 -0.55784,-0.36096 -0.18595,-0.0984 -0.26252,-0.91879 -0.39378,-1.37819 -0.13125,-0.4594 -0.0656,-2.36262 -0.0984,-3.57675 -0.0328,-1.21412 -0.72191,-8.18166 -1.082865,-12.2725 -0.360955,-4.09083 -0.459398,-3.20485 -0.689096,-4.79087 -0.229701,-1.58601 -1.115685,-4.47366 -1.673524,-6.7269 -0.557842,-2.25324 -1.071931,-7.87541 -1.640708,-11.78029 -0.56878,-3.90489 -1.093806,-6.14719 -1.607897,-9.2536 -0.514088,-3.10641 -1.421947,-5.38152 -2.13292,-8.07229 -0.710975,-2.69076 -1.79384,-6.78159 -2.690762,-10.17239 -0.896921,-3.3908 -1.520391,-6.6394 -2.264177,-9.97551 -0.743789,-3.3361 -1.936038,-6.6394 -2.920463,-9.90988 -0.984424,-3.27048 -0.965202,-2.91483 -1.424601,-4.35865 -0.459399,-1.443827 -1.118444,-1.921554 -1.677667,-2.97514 -0.559221,-1.05359 -1.067343,0.37125 -1.624219,0.603281 -0.556874,0.232029 -0.340313,1.484998 -0.510469,2.227499 z" /><g
     id="g3"
     transform="translate(-0.06562835)"><path
       id="path2"
       style="opacity:1;fill:#f3a6bc;fill-opacity:1;stroke:#000000;stroke-width:0.079375"
       d="m 80.947514,80.266935 c -1.311357,0.01997 -2.74273,0.262513 -4.211629,0.713652 -0.788612,0.210773 -1.559098,0.491231 -2.300118,0.833541 -0.44035,0.203416 -0.866983,0.433494 -1.28726,0.674894 -0.24189,0.122438 -0.481973,0.249632 -0.719853,0.381372 -3.876323,2.241895 -6.762253,5.481932 -7.53029,8.454264 -0.483481,0.548979 -1.025746,1.046827 -1.537374,1.571481 -0.637949,0.654192 -1.236774,1.37733 -1.547709,2.236555 -0.281199,0.777057 -0.31196,1.624107 -0.557072,2.41329 -0.25454,0.819542 -0.732364,1.552354 -1.02371,2.359546 -0.145673,0.4036 -0.24466,0.8293 -0.237711,1.25832 0.0069,0.42903 0.125102,0.8629 0.379821,1.2082 0.328571,0.4454 0.851573,0.70666 1.378211,0.87694 0.526637,0.17029 1.076501,0.26678 1.591634,0.46923 0.653308,0.25674 1.227781,0.67457 1.809709,1.06712 0.612997,0.41349 1.245764,0.80463 1.927531,1.09088 0.681766,0.28626 1.417462,-1.04399 2.156457,-1.06916 0.890688,-0.0303 1.750769,1.15346 2.522327,0.70743 0.771557,-0.44603 1.466269,-1.01071 2.164725,-1.56425 0.92605,-0.7339 1.878456,-1.45993 2.967778,-1.91771 1.239584,-0.52093 2.598371,-0.67103 3.900537,-1.00614 1.053401,-0.27109 2.07175,-0.66433 3.062345,-1.113626 0.923743,-0.418972 1.82459,-0.887103 2.726966,-1.350305 1.130589,-0.580346 2.265129,-1.153941 3.36827,-1.784904 1.705878,-0.97571 1.664736,-2.122438 2.802431,-3.724837 1.209363,-1.70334 3.447957,-3.911415 2.982745,-5.947957 -0.403212,-1.765127 -1.513446,-3.310721 -2.877344,-4.501534 -0.875184,-0.76412 -1.874181,-1.406848 -2.98328,-1.752865 -1.109098,-0.346017 -2.336065,-0.380019 -3.42098,0.03566 -0.137257,0.05259 -0.273015,0.112762 -0.417545,0.139526 -0.167886,0.03109 -0.340599,0.01625 -0.510564,0 -0.361102,-0.03452 -0.722138,-0.07883 -1.083138,-0.121439 -0.962672,-0.438327 -2.152001,-0.655097 -3.49591,-0.637171 z"
       sodipodi:nodetypes="ccscccsssssssssssssssssssssssssccc" /><ellipse
       style="opacity:1;fill:url(#radialGradient4);fill-opacity:1;stroke:none;stroke-width:0.079375"
       id="path3"
       transform="rotate(-30)"
       inkscape:label="path3"
       ry="6.8449221"
       rx="12.274453"
       cy="114.82715"
       cx="21.289726" /></g><use
     x="0"
     y="0"
     xlink:href="#g3"
     id="use4"
     transform="matrix(-0.96592582,0.25881904,0.25881904,0.96592582,185.25819,-28.99227)" /></svg>
