<?xml version="1.0" encoding="UTF-8" standalone="no"?>
<!-- Created with Inkscape (http://www.inkscape.org/) -->

<svg
   width="210mm"
   height="297mm"
   viewBox="0 0 210 297"
   version="1.1"
   id="svg1"
   xml:space="preserve"
   inkscape:version="1.4 (e7c3feb100, 2024-10-09)"
   sodipodi:docname="name-A.svg"
   xmlns:inkscape="http://www.inkscape.org/namespaces/inkscape"
   xmlns:sodipodi="http://sodipodi.sourceforge.net/DTD/sodipodi-0.dtd"
   xmlns:xlink="http://www.w3.org/1999/xlink"
   xmlns="http://www.w3.org/2000/svg"
   xmlns:svg="http://www.w3.org/2000/svg"><sodipodi:namedview
     id="namedview1"
     pagecolor="#ffffff"
     bordercolor="#999999"
     borderopacity="1"
     inkscape:showpageshadow="2"
     inkscape:pageopacity="0"
     inkscape:pagecheckerboard="0"
     inkscape:deskcolor="#d1d1d1"
     inkscape:document-units="mm"
     showgrid="true"
     inkscape:zoom="0.57552038"
     inkscape:cx="-36.488716"
     inkscape:cy="688.94172"
     inkscape:window-width="1920"
     inkscape:window-height="1134"
     inkscape:window-x="0"
     inkscape:window-y="29"
     inkscape:window-maximized="1"
     inkscape:current-layer="svg1" /><defs
     id="defs1"><linearGradient
       id="linearGradient20"
       inkscape:collect="always"><stop
         style="stop-color:#f7c6d0;stop-opacity:1;"
         offset="0.39836743"
         id="stop20" /><stop
         style="stop-color:#f1d5dc;stop-opacity:1;"
         offset="1"
         id="stop21" /></linearGradient><inkscape:path-effect
       effect="spiro"
       id="path-effect19"
       is_visible="true"
       lpeversion="1" /><linearGradient
       inkscape:collect="always"
       xlink:href="#linearGradient20"
       id="linearGradient21"
       x1="73.642433"
       y1="148.75119"
       x2="73.642433"
       y2="159.3548"
       gradientUnits="userSpaceOnUse"
       gradientTransform="translate(-227.60242,-47.302948)" /></defs><g
     inkscape:label="Lapis 1"
     inkscape:groupmode="layer"
     id="layer1" /><g
     id="g34"
     transform="matrix(1.3569034,0,0,1.3569034,-26.589604,-71.195379)"><path
       style="opacity:1;fill:#577f6d;fill-opacity:1;stroke:#000000;stroke-width:0.132292;stroke-dasharray:none;stroke-opacity:1"
       d="m 145.31413,96.324869 c -0.42519,7.985191 -1.184,15.952611 -2.27377,23.874511 -1.37125,9.96803 -3.27439,19.89402 -6.40787,29.45557 -2.6317,8.03041 -6.11774,15.7614 -10.02523,23.25439 -3.4491,6.61398 -7.23346,13.05997 -10.33529,19.84375 -5.93089,12.97102 -9.28573,27.0401 -10.64534,41.23779 -0.83144,8.68231 -0.905,17.60328 1.65364,25.94157 0.11901,0.38782 0.24406,0.776 0.30307,1.17736 0.059,0.40136 0.0491,0.82106 -0.0964,1.19976 -0.15787,0.41104 -0.47045,0.75349 -0.84509,0.98484 -0.38209,0.23595 -0.83135,0.36175 -1.28041,0.35853 -0.44906,-0.003 -0.89647,-0.13543 -1.27514,-0.37683 -0.51816,-1.01562 -0.95251,-2.07397 -1.2972,-3.16078 -0.89548,-2.82348 -1.1766,-5.79987 -1.42508,-8.75151 -0.26509,-3.14903 -0.4992,-6.30391 -0.51158,-9.46405 -0.0118,-3.01684 0.17606,-6.0646 -0.40194,-9.02557 -0.44186,-2.26356 -1.320031,-4.414 -2.119368,-6.57734 -1.438649,-3.89358 -2.640716,-7.88804 -4.457972,-11.61996 -1.749641,-3.59307 -4.042926,-6.88801 -6.175386,-10.26795 -2.513554,-3.98397 -4.811674,-8.10029 -7.308151,-12.09499 -2.65542,-4.24903 -5.531839,-8.35503 -8.404376,-12.46039 -3.134387,-4.47959 -6.269208,-8.96616 -9.062106,-13.66625 -2.651095,-4.46145 -4.989015,-9.10794 -7.015826,-13.88548 -2.897637,-6.83023 -5.169033,-13.97474 -6.065764,-21.33981 -0.919743,-7.55407 -0.382136,-15.19785 -0.07308,-22.80143 0.009,-0.22085 0.01804,-0.44366 0.07308,-0.65773 0.04596,-0.17874 0.124306,-0.34994 0.23634,-0.4966 0.112033,-0.14666 0.258229,-0.26829 0.426418,-0.34428 0.168188,-0.076 0.358417,-0.10526 0.540518,-0.0753 0.182102,0.03 0.355013,0.12045 0.477598,0.25841 0.0888,0.0999 0.150192,0.22264 0.185881,0.35149 0.03569,0.12884 0.04626,0.26382 0.04038,0.39738 -0.01176,0.26714 -0.08799,0.52652 -0.15318,0.78584 -0.424054,1.68679 -0.392655,3.45241 -0.292325,5.18879 0.211005,3.65179 0.714691,7.28093 1.315466,10.88914 0.776232,4.662 1.715503,9.29754 2.850179,13.88549 1.616639,6.53672 3.635021,12.98886 6.358093,19.14735 1.979206,4.47617 4.332174,8.79609 7.161988,12.78927 2.596292,3.66365 5.579152,7.03358 8.404373,10.52374 5.279371,6.52191 10.024708,13.48971 13.958567,20.90131 2.600248,4.89901 4.840203,9.97909 7.235071,14.98171 0.620543,1.29625 1.254536,2.59507 1.656913,3.97471 0.39262,1.34619 0.57852,2.79805 1.37783,3.95022 0.11282,0.16263 0.23991,0.32386 0.28422,0.51676 0.0216,0.0939 0.0225,0.1921 0.0495,0.28461 0.0135,0.0463 0.0338,0.0911 0.0643,0.12838 0.0305,0.0373 0.0719,0.0667 0.11873,0.0779 0.0327,0.008 0.0674,0.007 0.0998,-0.002 0.0324,-0.009 0.0626,-0.0255 0.0883,-0.0471 0.0515,-0.0433 0.0843,-0.106 0.0995,-0.17149 0.0306,-0.13099 -0.005,-0.26693 -0.0293,-0.39925 -0.0717,-0.3931 -0.0407,-0.79895 0.0349,-1.19133 0.0756,-0.39238 0.19486,-0.77473 0.30104,-1.15995 0.75372,-2.73442 0.84418,-5.59944 1.11104,-8.42326 0.32426,-3.43123 0.9143,-6.83165 1.3205,-10.25415 0.39724,-3.34699 0.61847,-6.71499 0.65774,-10.08524 0.0472,-4.04875 -0.16812,-8.09711 -0.51157,-12.13154 -0.52974,-6.22262 -1.3646,-12.41886 -2.48477,-18.5627 -0.9779,-5.36354 -2.17328,-10.68846 -2.996347,-16.07793 -0.986302,-6.45832 -1.435167,-12.99134 -2.484771,-19.43968 -0.837444,-5.14491 -2.054779,-10.22024 -2.996343,-15.34712 -1.387346,-7.55419 -2.174845,-15.231079 -2.082824,-22.911056 0.04412,-3.681855 0.289906,-7.357845 0.47503,-11.035308 0.03554,-0.706041 0.06886,-1.41244 0.07308,-2.119362 0.0041,-0.683073 -0.01882,-1.369409 0.07308,-2.046283 0.02894,-0.213153 0.06923,-0.424952 0.08674,-0.639347 0.01751,-0.214395 0.01162,-0.433546 -0.0502,-0.63958 -0.104856,-0.349471 -0.362889,-0.638847 -0.458761,-0.990888 -0.04794,-0.17602 -0.0516,-0.370376 0.02674,-0.535132 0.03917,-0.08238 0.09856,-0.155754 0.173956,-0.207099 0.07539,-0.05134 0.16696,-0.07993 0.258073,-0.07561 0.07199,0.0034 0.14201,0.02689 0.205814,0.0604 0.06381,0.03352 0.12188,0.07691 0.177864,0.122301 0.70323,0.570121 1.087185,1.458114 1.237616,2.350829 0.150431,0.892715 0.0925,1.805363 0.05958,2.710066 -0.05536,1.521677 -0.03859,3.044911 -0.03654,4.567594 0.004,2.947667 -0.04722,5.895572 0,8.842863 0.03965,2.475036 0.148713,4.948985 0.328867,7.417774 0.28765,3.941899 0.7567,7.871109 1.427686,11.766119 0.411219,2.38709 0.898118,4.76064 1.422493,7.12545 0.414462,1.86913 0.852387,3.73306 1.315467,5.59074 0.56544,2.2683 1.16903,4.53027 1.57125,6.83312 0.38684,2.21482 0.58566,4.45757 0.87698,6.68696 0.45538,3.48491 1.13672,6.93642 1.64433,10.41411 0.36947,2.53127 0.64683,5.07593 1.05969,7.60048 0.75147,4.59512 1.94927,9.10819 2.70401,13.70278 0.82219,5.00515 1.11439,10.07971 1.60779,15.12788 0.3362,3.43977 0.76683,6.88967 0.58466,10.34103 -0.10516,1.9924 -0.41398,3.96828 -0.58466,5.95614 -0.13578,1.58147 -0.18405,3.16963 -0.32886,4.7503 -0.0186,0.20267 -0.0389,0.40627 -0.0913,0.60293 -0.0412,0.15478 -0.1024,0.30585 -0.11594,0.46546 -0.007,0.0798 -0.001,0.16145 0.0244,0.23734 0.0256,0.0759 0.0721,0.14585 0.13726,0.19244 0.073,0.0522 0.16788,0.0725 0.2558,0.0548 l 0.90439,-2.64921 c 0.48798,-0.96723 0.9213,-1.96203 1.2972,-2.97807 0.56271,-1.52099 0.99583,-3.0865 1.51644,-4.62241 1.01764,-3.00228 2.3655,-5.88017 3.70889,-8.75151 0.34176,-0.73048 0.68343,-1.46101 1.02314,-2.19244 1.73058,-3.72608 3.41295,-7.48044 5.40803,-11.07185 0.86646,-1.55975 1.79077,-3.08666 2.66747,-4.64068 5.1495,-9.1279 8.61408,-19.11829 11.2911,-29.25088 0.83036,-3.14295 1.58789,-6.30651 2.19244,-9.50059 1.59452,-8.4245 2.11659,-17.01187 3.28867,-25.50545 0.32044,-2.32211 0.68973,-4.681385 0.32886,-6.997555 -0.15496,-0.994601 -0.44404,-1.974868 -0.4535,-2.981425 -0.005,-0.503278 0.0625,-1.011723 0.2461,-1.480334 0.18362,-0.468612 0.48848,-0.896419 0.90168,-1.183787 0.26704,-0.185721 0.57826,-0.311016 0.90171,-0.345438 0.32345,-0.03442 0.65863,0.02418 0.9436,0.181004 0.27261,0.150022 0.49333,0.385758 0.64758,0.655999 0.15425,0.27024 0.24412,0.574117 0.28744,0.88225 0.0866,0.616266 -0.009,1.241353 -0.0763,1.860042 -0.0811,0.74726 -0.12058,1.499045 -0.11808,2.250693 z"
       id="path19"
       inkscape:path-effect="#path-effect19"
       inkscape:original-d="m 145.31413,96.324869 c 0.13116,0.731961 -1.51584,15.916341 -2.27377,23.874511 -0.75792,7.95817 -4.30637,19.70595 -6.40787,29.45557 -2.10151,9.74962 -6.61459,15.43403 -10.02523,23.25439 -3.41065,7.82037 -6.92464,13.22917 -10.33529,19.84375 -3.41064,6.61458 -7.09689,27.49186 -10.64534,41.23779 -3.54845,13.74593 1.13688,17.25993 1.65364,25.94157 0.51677,8.68165 0.10336,1.65365 0.20671,2.37712 0.10335,0.72347 -1.1207,1.46716 -0.84509,0.98484 0.2756,-0.48231 -3.40131,-0.0973 -2.55555,-0.0183 -0.82749,-0.0608 -1.72959,-4.20219 -1.2972,-3.16078 0.43241,1.04142 -0.95006,-5.82216 -1.42508,-8.75151 -0.47503,-2.92935 -0.34105,-6.33373 -0.51158,-9.46405 -0.17052,-3.13033 -0.26796,-5.99269 -0.40194,-9.02557 -0.13399,-3.03288 -1.425093,-4.40925 -2.119368,-6.57734 -0.694274,-2.16808 -2.97198,-7.73445 -4.457972,-11.61996 -1.48599,-3.8855 -4.116925,-6.8453 -6.175386,-10.26795 -2.058463,-3.42265 -4.859922,-8.05115 -7.308151,-12.09499 -2.448232,-4.04384 -5.602917,-8.35565 -8.404376,-12.46039 -2.801456,-4.10475 -6.090126,-9.11083 -9.062106,-13.66625 -2.971982,-4.55541 -4.628496,-9.20827 -7.015826,-13.88548 -2.387328,-4.67722 -4.043842,-14.22654 -6.065764,-21.33981 -2.021922,-7.11326 -0.02437,-15.17659 -0.07308,-22.80143 -0.04872,-7.62483 0,-0.43849 0.07308,-0.65773 0.07308,-0.21924 1.193665,-0.41413 1.680874,-0.65773 0.487209,-0.24361 0,0.97441 0.07308,1.53471 0.07308,0.56029 -0.194884,3.45919 -0.292325,5.18879 -0.09744,1.72959 0.876977,7.25942 1.315466,10.88914 0.438489,3.62972 1.900121,9.25699 2.850179,13.88549 0.95006,4.62849 4.263088,12.81362 6.358093,19.14735 2.095003,6.33373 4.750298,8.50182 7.161988,12.78927 2.41169,4.28745 5.627275,6.99146 8.404373,10.52374 2.777099,3.53227 9.25699,13.90984 13.958567,20.90131 4.70158,6.99146 4.872101,10.01216 7.235071,14.98171 2.362973,4.96954 1.120976,2.58616 1.656913,3.97471 0.53593,1.38855 0.93578,2.6507 1.37783,3.95022 0.44206,1.29951 0.20671,0.34451 0.28422,0.51676 0.0775,0.17226 0.13781,0.32729 0.23255,0.49093 0.0947,0.16364 0.34451,-0.81821 0.25838,-0.62012 -0.0861,0.19809 0.21532,-1.55891 0.3359,-2.35128 0.12057,-0.79237 0.7493,-5.62411 1.11104,-8.42326 0.36174,-2.79913 0.75853,-7.27459 1.3205,-10.25415 0.56197,-2.97956 0.5603,-6.30937 0.65774,-10.08524 0.0974,-3.77588 -0.36541,-8.03897 -0.51157,-12.13154 -0.14617,-4.09256 -1.63216,-12.39949 -2.48477,-18.5627 -0.85262,-6.16321 -1.99757,-10.74298 -2.996347,-16.07793 -0.998781,-5.33495 -1.656514,-12.93543 -2.484771,-19.43968 -0.828257,-6.50426 -1.973202,-10.3045 -2.996343,-15.34712 -1.023141,-5.04262 -1.400728,-15.261857 -2.082824,-22.911056 -0.682093,-7.649197 0.316688,-7.356872 0.47503,-11.035308 0.158346,-3.678436 0.04872,-1.412909 0.07308,-2.119362 0.02437,-0.706456 0.04872,-1.364189 0.07308,-2.046283 0.02437,-0.682095 0.02436,-0.852618 0.03654,-1.278927 0.01218,-0.426309 5e-6,-1.205822 7e-6,-1.808733 3e-6,-0.602911 0.255786,0.09744 0.383678,0.182704 0.127893,0.08526 0.864798,3.422651 1.297197,5.060895 0.432399,1.638244 -0.02436,3.045063 -0.03654,4.567594 -0.01218,1.522532 0,5.870882 0,8.842863 0,2.971982 0.182704,4.933002 0.328867,7.417774 0.146163,2.484771 1.062279,7.868439 1.427686,11.766119 0.365408,3.89768 0.874382,4.77466 1.422493,7.12545 0.548111,2.35079 0.864798,3.71498 1.315467,5.59074 0.45067,1.87576 1.05968,4.54323 1.57125,6.83312 0.51157,2.28989 0.57247,4.45797 0.87698,6.68696 0.30451,2.22898 1.09622,6.95492 1.64433,10.41411 0.54812,3.45919 0.70646,5.07917 1.05969,7.60048 0.35322,2.52131 1.77831,9.13519 2.70401,13.70278 0.9257,4.5676 1.09622,10.06089 1.60779,15.12788 0.51158,5.06698 0.38977,6.89402 0.58466,10.34103 0.19488,3.44701 -0.38977,3.97076 -0.58466,5.95614 -0.19488,1.98538 -0.21924,3.16687 -0.32886,4.7503 -0.10962,1.58343 -0.067,0.32278 -0.0913,0.60293 -0.0244,0.28014 -0.0579,0.66382 0.0457,0.89524 0.10354,0.23143 0.2619,-0.0548 0.2558,0.0548 -0.0122,-0.10963 1.17236,-3.40439 0.90439,-2.64921 0.2497,-0.75518 0.84653,-1.99756 1.2972,-2.97807 0.45067,-0.98051 1.03532,-3.07552 1.51644,-4.62241 0.48112,-1.54689 2.38733,-5.70644 3.70889,-8.75151 1.32156,-3.04506 0.75517,-1.58343 1.02314,-2.19244 0.26796,-0.60902 3.60535,-7.39342 5.40803,-11.07185 1.80268,-3.67844 1.80268,-3.05725 2.66747,-4.64068 0.8648,-1.58343 7.50304,-19.52494 11.2911,-29.25088 3.78806,-9.72593 1.46163,-6.38245 2.19244,-9.50059 0.73082,-3.11815 2.19245,-17.00363 3.28867,-25.50545 1.09622,-8.501815 0.10962,-4.464062 0.32886,-6.997555 0.21925,-2.533492 0.59684,-3.940311 0.69428,-5.645546 0.0974,-1.705235 1.11449,0.542021 1.84531,-0.164434 0.73081,-0.706454 0.83433,1.619974 0.85873,3.398291 0.0244,1.778317 -0.24924,1.518732 -0.11808,2.250693 z"
       sodipodi:nodetypes="csssssssscssssssssssssssssssssssssssssssssssssssssssssssssssssssssssssscsccsssssssssscsscc" /><ellipse
       style="opacity:1;fill:url(#linearGradient21);fill-opacity:1;stroke:#000000;stroke-width:0.132292;stroke-dasharray:none;stroke-opacity:1"
       id="path20"
       ry="8.4605627"
       rx="5.3018107"
       cy="106.75006"
       cx="-153.95998"
       transform="rotate(-75)" /><use
       id="use21"
       inkscape:spray-origin="#path20"
       xlink:href="#path20"
       transform="rotate(120,71.761415,168.88784)" /><use
       id="use22"
       inkscape:spray-origin="#path20"
       xlink:href="#path20"
       transform="rotate(15,180.5868,98.044602)" /><use
       id="use23"
       inkscape:spray-origin="#path20"
       xlink:href="#path20"
       transform="rotate(90,84.375239,146.25296)" /><use
       id="use24"
       inkscape:spray-origin="#path20"
       xlink:href="#path20"
       transform="rotate(75,105.91836,131.08146)" /><use
       id="use25"
       inkscape:spray-origin="#path20"
       xlink:href="#path20"
       transform="rotate(45,163.32899,170.83279)" /><use
       id="use26"
       inkscape:spray-origin="#path20"
       xlink:href="#path20"
       transform="rotate(135,94.744808,159.52133)" /><use
       id="use27"
       inkscape:spray-origin="#path20"
       xlink:href="#path20"
       transform="translate(31.716416,-29.271739)" /><use
       id="use28"
       inkscape:spray-origin="#path20"
       xlink:href="#path20"
       transform="rotate(105,115.23425,146.90724)" /><use
       id="use29"
       inkscape:spray-origin="#path20"
       xlink:href="#path20"
       transform="rotate(75,148.89914,142.61264)" /><use
       id="use30"
       inkscape:spray-origin="#path20"
       xlink:href="#path20"
       transform="rotate(75,159.98091,185.3617)" /><use
       id="use31"
       inkscape:spray-origin="#path20"
       xlink:href="#path20"
       transform="rotate(45,181.82162,235.90153)" /><use
       id="use32"
       inkscape:spray-origin="#path20"
       xlink:href="#path20"
       transform="rotate(120,119.38796,176.62201)" /><use
       id="use33"
       inkscape:spray-origin="#path20"
       xlink:href="#path20"
       transform="rotate(15,201.35189,409.14344)" /><use
       id="use34"
       inkscape:spray-origin="#path20"
       xlink:href="#path20"
       transform="rotate(150,101.99774,179.80078)" /></g></svg>
